<?xml version="1.0" encoding="UTF-8"?> <svg preserveAspectRatio="xMidYMid meet" xmlns="http://www.w3.org/2000/svg" xmlns:xlink="http://www.w3.org/1999/xlink" viewBox="0 0 290 86"><defs><style>.a{fill:none;}.b{clip-path:url(#a);}</style><clipPath id="a"><rect class="a" x="102" width="86" height="86"></rect></clipPath></defs><g class="b"><g class="b"><path d="M138.33,46.09c-2,0-3.29,2-3.29,4.43S136.32,55,138.33,55s3.29-2,3.29-4.44-1.28-4.43-3.29-4.43"></path><path d="M125.58,51.38h-1.73v3.73h1.82a1.73,1.73,0,0,0,2-2c0-1.5-.91-1.76-2-1.76"></path><path d="M145.2,30.1h-.77v5.21l1.31-.52a2.56,2.56,0,0,0,1.75-2.67c0-1.63-1.21-2-2.29-2"></path><path d="M127,47.48c0-1-.39-1.72-1.77-1.72h-1.33v3.56h1.6c1.3,0,1.5-1,1.5-1.84"></path><path d="M145.05,8.91A34.06,34.06,0,1,0,179.11,43,34.1,34.1,0,0,0,145.05,8.91m17,18.69h4.7c3.79,0,4.81,2.22,4.81,4.53,0,1.48-.61,2.71-2.48,3.82l3.27,5.61h-2.53c-.85,0-1.3-.48-1.81-1.27l-1.77-3-.93.3v4h-3.26Zm-9.8,0h7.94v2.53h-4.68v3h3.37v2.33h-3.37V39h4.68v2.52h-7.94Zm-23.73,0h3.26v8.52c0,1.83.51,2.75,1.93,2.75s1.93-.92,1.93-2.75V27.6h3.26v8.52c0,4.13-2,5.71-5.19,5.71s-5.19-1.58-5.19-5.71Zm-11.16,4c0-2,1.62-4.17,4.67-4.29a7.79,7.79,0,0,1,4.23.8v2.76a6.3,6.3,0,0,0-3.49-1.07c-1.38.05-1.93.88-1.93,1.55,0,2.51,6,1,6,6.12,0,2.38-1.72,4.25-4.67,4.36a8.85,8.85,0,0,1-4.62-1V38a8.48,8.48,0,0,0,4.08,1.18c1.18,0,1.62-.64,1.62-1.37,0-2.71-5.85-1.12-5.85-6.2m8.93,25.88h-5.71v-14h4.94c2.31,0,4.58,1.16,4.58,3.83a3.3,3.3,0,0,1-1.37,2.74A3.31,3.31,0,0,1,131,53.43c0,2.15-1.54,4-4.68,4m12,.27c-4,0-6.5-3.23-6.5-7.23s2.54-7.23,6.5-7.23,6.5,3.23,6.5,7.23-2.55,7.23-6.5,7.23m6.1-19.91v3.73h-3.26v-14h4.7c3.79,0,4.82,2.22,4.82,4.52,0,2-1.16,3.79-4.95,5.2Zm12.22,9.3a5.65,5.65,0,0,0-3.21-1c-2.2,0-3.9,1.59-3.9,4.38s1.7,4.38,3.9,4.38a5.64,5.64,0,0,0,3.21-1v3a5.81,5.81,0,0,1-3.21.82,7.25,7.25,0,1,1,0-14.49,5.89,5.89,0,0,1,3.21.81ZM167.2,57.47c-.85,0-1.24-.43-1.82-1.27l-3.61-5.31v6.58h-3.26v-14h3.26v6.2l4-6.2h3.5L164.92,50,170,57.47Z"></path><path d="M145,.1A42.9,42.9,0,1,0,187.9,43,43,43,0,0,0,145,.1m0,81.33A38.43,38.43,0,1,1,183.43,43,38.48,38.48,0,0,1,145,81.43"></path><path d="M168.36,32.13c0-1.63-1.19-2-2.27-2h-.77v5.14c2.61-.87,3-1.64,3-3.13"></path></g></g></svg> 