<?xml version="1.0" encoding="UTF-8"?> <svg preserveAspectRatio="xMidYMid meet" xmlns="http://www.w3.org/2000/svg" xmlns:xlink="http://www.w3.org/1999/xlink" viewbox="0 0 290 45" width="290" height="45"><defs><style>.cls-1{fill:none;}.cls-2{clip-path:url(#clip-path);}.cls-3{fill-rule:evenodd;}</style><clipPath id="clip-path"><rect class="cls-1" x="39" width="212" height="45"></rect></clipPath></defs><title>Main_M_Audemars-black</title><g id="M_Main_Partners_-_Logos" data-name="M_Main Partners - Logos"><g id="AP_-_Noir" data-name="AP - Noir"><g class="cls-2"><g class="cls-2"><path class="cls-3" d="M181.61,1H178.7V14.13h2.91c.51,0,.77-.35.79-1V2.28c0-.86-.26-1.28-.8-1.28m-38,5h-.19c-.76,0-.82.43-.83,1.25v8.54c1,0,3.73.32,3.82-2.2V7.8c0-2-1.36-1.86-2.81-1.84M51.57,3.79,46,17.59h5.58ZM129,9.27l-2.19,10.05h4ZM80,5.84c-1.46,0-1.93.42-2,2.15v16.4c0,1.58.08,1.69.87,1.76A9.68,9.68,0,0,0,81.49,26c2-.55,2.49-4.5,2.49-4.5.34-4.47.54-10.36-.69-13.52C82.67,6.37,81.87,5.84,80,5.84M49.05,0l6.13.09c0,1.28,0,17.43,0,22.14v1.2c0,2.93,1.24,3.07,2.45,3.08h.07v.68H49.05v-.68c1.45,0,2.49-.14,2.52-2.92v-5h-6S44.4,21.39,43.74,23s-.27,3.44,1,3.53h.08v.68H39v-.68c1.61,0,2.68-1.85,3.44-3.54.6-1.34,5.8-14.53,7.86-19.75.5-1.28.37-2.45-1.14-2.51h-.11V0h0Zm58.38,4.84,4.3,15.63.08-.36L116.3,4.84h5.48v.7c-1.16,0-2,1.08-2,2.78V23.73c0,1.7.86,2.78,2,2.78v.68H114.5v-.68c1.16,0,2-1.08,2-2.78v-16l-5.67,19.48h-.54L104.81,7.64V23.73c0,1.7.81,2.78,2,2.78v.68h-5v-.68c1.16,0,2-1.08,2-2.78V8.39c0-2.36-.58-2.85-2-2.85v-.7ZM172.52,0H183.1C185,0,185.91,1.36,186,3.25v8.38c0,2.4-1.1,3.49-2.54,3.53H178.7v8c0,2.93.89,3.31,2.4,3.33h.09v.68h-8.66v-.68c1.34,0,2.48-.24,2.52-3.18V3.75c0-2-1-3-2.41-3h-.12V0h0ZM131.23,4.77,135.37,25c.33,1.34.89,1.52,1.24,1.54h0v.68h-5.75v-.68c.84,0,1.54-.31,1.16-2l0-.13-.88-4h-4.58l-.86,3.25c-.4,1.69-.39,2.83.93,2.88h.1v.68h-3.79v-.68c.54,0,1.11-.3,1.55-2l0-.16L128.18,8c.25-1.36.44-2.47-.84-2.52h-.1V4.77ZM251,4.84V9.13h-.74c-.1-.86-.29-2.12-1.06-2.61a4,4,0,0,0-2.33-.47h-.53v0h0V23.73c0,1.7.88,2.78,1.94,2.78v.68h-7.06v-.68c1.06,0,1.9-1.08,1.9-2.78V6.05a4.91,4.91,0,0,0-2.86.47c-.77.49-1,1.75-1.06,2.61h-.74V4.84Zm-14,0V9.13h-.81c-.2-1.12-.36-3-3.55-3.17l-1.35-.07c-.72,0-.87.27-.87,1.94v7.52c2.34-.2,2.65-.35,3.15-3.27h.63v7.69h-.63c-.59-3.08-.81-3.07-3.15-3.27V24c0,1.56.15,2,1.15,2.12,1.6.06,4.5.62,5.55-3h.9l-.89,4.05H225.26v-.68c1.06,0,1.94-1.08,1.94-2.78V8.32c0-1.7-.88-2.78-1.94-2.78v-.7Zm-42,0v.7c-1.32,0-1.92,1.08-1.92,2.79v15.4c0,1.7.6,2.78,1.92,2.78v.68h-7.08v-.68c1.32,0,1.93-1.08,1.93-2.78V8.33c0-1.71-.61-2.79-1.93-2.79v-.7Zm-95.18,0V9.13H99c-.2-1.12-.37-3-3.55-3.17l-1.35-.07c-.73,0-.87.27-.87,1.94v7.52c2.33-.2,2.64-.35,3.15-3.27H97v7.69h-.63c-.6-3.08-.82-3.07-3.15-3.27V24c0,1.56.15,2,1.16,2.12,1.6.06,4.5.62,5.55-3h.9l-.89,4.05H88v-.68c1.06,0,2-1.08,2-2.78V8.32c0-1.7-.92-2.78-2-2.78v-.7Zm-26.87,0H81c2.07,0,3.52.48,4.42,1.64S87,10,87.14,13.85s0,6.42-1,9.52c-1,2.92-2.64,3.79-4.08,3.82H72.92v-.68c1,0,1.88-1,1.93-2.64V8.32C74.85,6.67,74,5.6,73,5.54h-.09v-.7h0Zm64.56,0h7.22c2.46,0,4.76.14,4.76,2.78,0,1.56,0,3.9,0,6.13,0,2-1.43,2.49-2.59,2.77l-.08,0,3.71,8.8c.55,1.3.86,1.18,1.1,1.17h0v.68H149a1.64,1.64,0,0,1-1.07-.31,2.62,2.62,0,0,1-.56-.9h0L143.7,16.8h-1.07v6.93c0,1.65.87,2.72,1.88,2.78h.09v.68h-7.15v-.68h.07a2.59,2.59,0,0,0,1.88-2.64V8.33c0-1.66-.82-2.73-1.83-2.79h-.09Zm19.64-.61c2.89-.12,3.23,1.18,4.34,1.22.35,0,.63-.19.67-1h.65v7h-.58c-.33-1.85-1.27-6.1-4.26-6.13-2,0-2.29,2.9-2.29,3.69,0,1.45.94,3.12,3.39,4.4C162.48,15.19,164,17.88,164,21c0,2.3-.85,6.39-5.67,6.45-1.89,0-3-1.12-4.06-1.12-.27,0-.44.34-.51,1h-.67V19.5h.65l.47,2.3c.27,1.28,1.62,4.66,3.67,4.66,2.9,0,3.13-3.3,3.13-4.09,0-1.9-1.16-2.89-4.8-5.35a8,8,0,0,1-3.28-6.6c0-4.47,2.34-6.11,4.22-6.19m45.71.19c2.74,0,4.3,2.71,4.3.08H208v6.88h-1.09c0-3.87-2.13-5.87-4.12-5.87a2.43,2.43,0,0,0-2.55,2.71v15.4c0,2.13.68,2.76,2.38,2.76s2.66-.23,2.66-3V18.13c0-1.56-1-1.65-1-1.65V15.9h4.87v.58s-1,.13-1,1.61v3.75a5.58,5.58,0,0,1-1.46,3.86,4.64,4.64,0,0,1-1.55,1.21,6.7,6.7,0,0,1-2.48.57,6.45,6.45,0,0,1-4.38-1.64A5.53,5.53,0,0,1,196.88,22V9.89A5.67,5.67,0,0,1,198.27,6a6,6,0,0,1,4.56-1.57m-138.4.42v.7c-1.05,0-2,1.08-2,2.79V21.79c0,2.37.29,4.39,2.36,4.39s4.13.4,4.13-4.5V8.33c0-1.71-.91-2.79-2-2.79v-.7H71.9v.7c-1.05,0-2,1.08-2,2.79V21.58c0,5.85-2.16,6-5.68,6s-5-2.06-5-4.85V8.33c0-1.71-.95-2.79-2-2.79v-.7Zm152.39,0v.7c-1.06,0-1.93,1.08-1.93,2.79V21.65c0,2.43.24,4.53,2.36,4.53s4.13.4,4.13-4.5V8.33c0-1.71-.84-2.79-1.9-2.79v-.7h4.77v.7c-1.05,0-1.89,1.08-1.89,2.79V21.58c0,5.85-2.16,6-5.68,6s-5-2.06-5-4.85V8.33c0-1.71-.88-2.79-1.94-2.79v-.7Zm-78,30.78h-.15c-.41,0-.44,0-.56.46l-.9,2.91c-.1.34-.09.42.54.42,1,0,2.9-.51,2.9-2.34,0-.84-.64-1.45-1.83-1.45m-11.63,3.7c-.2,0-.58.13-1.1.7a5.81,5.81,0,0,0-1.07,1.7,4.14,4.14,0,0,0,1.94-1.08,1.63,1.63,0,0,0,.57-1,.32.32,0,0,0-.34-.33m24.48.31c-.35,0-.58.16-1,.56A6.44,6.44,0,0,0,148.79,44c0,.18.08.28.21.28s.58-.19,1.41-.94a7.05,7.05,0,0,0,1.94-3.14.75.75,0,0,0-.72-.52m-14,.21c-.7,0-.75,0-.9.5l-.85,2.79c-.31.95.11,1.26,1.15,1.26a2.61,2.61,0,0,0,2.74-2.72,1.92,1.92,0,0,0-2.14-1.83m.56-4.67a6.35,6.35,0,0,1,2.35.34,1.87,1.87,0,0,1,1.23,1.83,2.4,2.4,0,0,1-2.26,2.21c-.23,0-.13.12,0,.16A2.25,2.25,0,0,1,141,41.85a2.64,2.64,0,0,1-.78,1.89,4.73,4.73,0,0,1-3.48,1.1c-.78,0-1.32,0-1.93,0s-1.07,0-1.49,0a.24.24,0,0,1,0-.36l.29,0c.7-.1.84-.24,1.31-1.72L136.69,37c.35-1.12.22-1.25-.43-1.3h-.48c-.1-.07-.07-.28,0-.35a17.79,17.79,0,0,1,2.43-.17m-17.45,0a.23.23,0,0,1,0,.36l-.45.06c-.82.1-.9.27-1.35,1.71l-1.59,5.14c-.51,1.6-.59,1.91,1.17,1.91s2.29-.08,3.18-1.51c.14-.05.29,0,.32.08a11,11,0,0,1-.93,1.92c-.54,0-1.12,0-1.7,0h-3.33c-.59,0-1.07,0-1.54,0a.25.25,0,0,1,0-.36l.35,0c.69-.1.84-.24,1.3-1.72l1.7-5.41c.43-1.36.46-1.6-.34-1.71l-.34-.06a.22.22,0,0,1,.08-.36c.57,0,1.06,0,1.66,0s1.07,0,1.82,0m26.4,3.7c.51,0,.58.49.58.71a1.82,1.82,0,0,1-.3.87c-.18.22-.41.24-.47-.07s-.16-.57-.3-.57-.29.15-.51.44a24.59,24.59,0,0,0-2.46,4.58.27.27,0,0,1-.25.17c-.16,0-.58-.06-.48-.38.19-.58,1.1-3.15,1.49-4.57,0-.16,0-.31-.11-.31-.38,0-.77.41-1,.76-.15,0-.25-.06-.23-.24.46-.78,1-1.39,1.71-1.39s.46,1,.33,1.38l-.62,1.83h.07a21.48,21.48,0,0,1,1.52-2.45c.34-.44.7-.76,1.06-.76m-19.72,0a.91.91,0,0,1,.92.87c0,1.11-1.44,1.83-3.52,2.41a3.51,3.51,0,0,0-.21,1.3.74.74,0,0,0,.7.82c.52,0,.88-.29,1.52-.84a.2.2,0,0,1,.19.25A3,3,0,0,1,124.72,45c-.87,0-1.17-.81-1.17-1.53a5.44,5.44,0,0,1,2.15-3.9,2.81,2.81,0,0,1,1.74-.7m47.24,0a.87.87,0,0,1,.86.83.51.51,0,0,1-.26.45c-.1,0-.18,0-.27-.12a1.15,1.15,0,0,0-.88-.46.59.59,0,0,0-.6.58,2.48,2.48,0,0,0,.49,1.32,2.55,2.55,0,0,1,.55,1.61,2,2,0,0,1-.75,1.4,2.24,2.24,0,0,1-1.46.52.86.86,0,0,1-.89-.77.71.71,0,0,1,.22-.48.29.29,0,0,1,.39,0,1.64,1.64,0,0,0,1,.58.79.79,0,0,0,.7-.83,3,3,0,0,0-.54-1.27,2.93,2.93,0,0,1-.51-1.36,2.36,2.36,0,0,1,2-2m-20.85-.12c-.22.54-1.48,3.75-1.94,5.07-.09.25,0,.34.1.34s.67-.25,1.49-1a.21.21,0,0,1,.21.19A3.77,3.77,0,0,1,151.25,45a.4.4,0,0,1-.42-.39A1.88,1.88,0,0,1,151,44l.47-1.31h0c-1,1.28-2.51,2.28-3.19,2.28-.4,0-.64-.41-.64-.81a6.26,6.26,0,0,1,1.28-2.82,6.5,6.5,0,0,1,1.91-1.88,2.65,2.65,0,0,1,1.31-.42.77.77,0,0,1,.35.09.87.87,0,0,1,.28.31l.41-.93a.6.6,0,0,1,.71.21m8.41.12a.88.88,0,0,1,.87.83.53.53,0,0,1-.26.45.24.24,0,0,1-.28-.12,1.12,1.12,0,0,0-.88-.46.59.59,0,0,0-.6.58,2.52,2.52,0,0,0,.5,1.32,2.61,2.61,0,0,1,.55,1.61,2.06,2.06,0,0,1-.76,1.4,2.22,2.22,0,0,1-1.46.52.85.85,0,0,1-.88-.77.69.69,0,0,1,.21-.48.29.29,0,0,1,.39,0,1.64,1.64,0,0,0,1,.58.79.79,0,0,0,.7-.83,2.91,2.91,0,0,0-.54-1.27,3,3,0,0,1-.5-1.36,2.37,2.37,0,0,1,1.94-2m-4.52,0a.88.88,0,0,1,.87.83.51.51,0,0,1-.27.45c-.1,0-.18,0-.27-.12a1.15,1.15,0,0,0-.89-.46.58.58,0,0,0-.59.58,2.48,2.48,0,0,0,.49,1.32,2.55,2.55,0,0,1,.55,1.61,2,2,0,0,1-.75,1.4,2.24,2.24,0,0,1-1.46.52.86.86,0,0,1-.89-.77.71.71,0,0,1,.22-.48.29.29,0,0,1,.39,0,1.61,1.61,0,0,0,1,.58.79.79,0,0,0,.7-.83,3,3,0,0,0-.54-1.27,2.93,2.93,0,0,1-.51-1.36,2.36,2.36,0,0,1,1.95-2m9.13,0c.19,0,.52.19.43.44l-1.62,4.24c-.13.35-.06.49.1.49s.8-.46,1.55-1.2A15.25,15.25,0,0,0,169.86,39c.31-.06.66.08.71.26-.14.39-1.08,2.77-1.69,4.5-.08.19-.09.36.06.36s1-.68,1.42-1.13a.2.2,0,0,1,.26.2A4.28,4.28,0,0,1,168.08,45a.4.4,0,0,1-.36-.51l1-2.66h0c-1,1.32-2.84,3.18-3.62,3.18-.59,0-.67-.6-.42-1.23L166,40.24c.11-.28.12-.43,0-.43-.27,0-1,.64-1.37,1a.21.21,0,0,1-.25-.22,4.9,4.9,0,0,1,2.51-1.73"></path></g></g></g></g></svg> 