<?xml version="1.0" encoding="UTF-8"?> <svg preserveAspectRatio="xMidYMid meet" xmlns="http://www.w3.org/2000/svg" xmlns:xlink="http://www.w3.org/1999/xlink" id="M_Main_Partners_-_Logos" data-name="M_Main Partners - Logos" viewBox="0 0 290 86"><defs><style>.cls-1{fill:none;}.cls-2{clip-path:url(#clip-path);}.cls-3{fill:#fff;}</style><clipPath id="clip-path"><rect class="cls-1" x="102" width="86" height="86"></rect></clipPath></defs><g id="Superbock"><g class="cls-2"><g class="cls-2"><path class="cls-3" d="M145,85.9A42.9,42.9,0,1,1,187.9,43,43,43,0,0,1,145,85.9m.05-4.91a38,38,0,1,0-38-38,38.06,38.06,0,0,0,38,38M162,41.39h-8.86V25.81H162v2.82h-5.23V32h3.76v2.6h-3.76v4H162Zm-29.56.3c3.53,0,5.8-1.75,5.8-6.37V25.81h-3.64v9.51c0,2-.57,3.07-2.16,3.07s-2.16-1-2.16-3.07V25.81h-3.63v9.51c0,4.62,2.25,6.37,5.79,6.37m35.27-.3H164V25.81h5.25c4.22,0,5.37,2.48,5.37,5.05,0,1.65-.68,3-2.77,4.27l3.65,6.26h-2.82c-.95,0-1.45-.53-2-1.41l-2-3.41-1,.34Zm0-7c2.92-1,3.4-1.84,3.4-3.5s-1.34-2.24-2.54-2.24h-.86Zm-22.87,17c0,4.46-2.84,8.08-7.26,8.08s-7.25-3.62-7.25-8.08,2.84-8.07,7.25-8.07,7.26,3.61,7.26,8.07m-3.58,0c0-2.74-1.43-4.95-3.68-4.95s-3.67,2.21-3.67,4.95,1.43,5,3.67,5,3.68-2.22,3.68-5M118.88,38.72a9.55,9.55,0,0,1-4.55-1.32v3.2a10,10,0,0,0,5.15,1.09c3.29-.13,5.21-2.21,5.21-4.87,0-5.77-6.64-4-6.64-6.84,0-.74.6-1.66,2.15-1.73a7,7,0,0,1,3.89,1.2V26.37a8.64,8.64,0,0,0-4.72-.9c-3.4.14-5.22,2.55-5.22,4.8,0,5.66,6.54,3.88,6.54,6.92,0,.81-.49,1.48-1.81,1.53m53.18,4.85h-3.91l-4.43,6.92V43.57h-3.64V59.16h3.64V51.8l4,5.93c.65,1,1.08,1.43,2,1.43h3.16l-5.71-8.36ZM129.35,54.64c0,2.4-1.72,4.52-5.22,4.52h-6.38V43.57h5.52c2.58,0,5.11,1.29,5.11,4.27a3.71,3.71,0,0,1-1.54,3.07,3.66,3.66,0,0,1,2.51,3.73m-8-4.58h1.78c1.45,0,1.68-1.14,1.68-2.05,0-1.08-.44-1.92-2-1.92h-1.49Zm4.21,4.26c0-1.67-1-2-2.28-2h-1.93v4.16h2a1.93,1.93,0,0,0,2.17-2.2m20.67-2.94a7.83,7.83,0,0,0,8.15,8.08,6.49,6.49,0,0,0,3.58-.91V55.14a6.28,6.28,0,0,1-3.58,1.12c-2.45,0-4.36-1.76-4.36-4.88s1.91-4.9,4.36-4.9A6.3,6.3,0,0,1,158,47.61V44.19a6.57,6.57,0,0,0-3.58-.9,7.83,7.83,0,0,0-8.15,8.09m1.5-20.52a2.84,2.84,0,0,1-2,3l-2.33.94v2.81l2.33-.92c4.24-1.57,5.53-3.58,5.53-5.8,0-2.58-1.15-5.05-5.37-5.05h-5.25V41.39h3.64V28.61h.86c1.2,0,2.54.42,2.54,2.25"></path></g></g></g></svg> 