<?xml version="1.0" encoding="UTF-8"?> <svg preserveAspectRatio="xMidYMid meet" xmlns="http://www.w3.org/2000/svg" xmlns:xlink="http://www.w3.org/1999/xlink" viewbox="0 0 290 60" width="290" height="60"><defs><style>.cls-1{fill:none;}.cls-2{clip-path:url(#clip-path);}</style><clipPath id="clip-path"><rect class="cls-1" x="45.84" y="-0.04" width="198.32" height="60.07"></rect></clipPath></defs><title>Main_M_Vaudoise-black</title><g id="M_Main_Partners_-_Logos" data-name="M_Main Partners - Logos"><g id="Vaudoise"><g class="cls-2"><g class="cls-2"><path d="M95.09,1.89A3.83,3.83,0,0,0,92,0c-1.93,0-4,1.52-6.27,4.55-3.85,5.26-8.09,15.07-13,26.6C70.82,27.77,66.37,23,60,23a13.6,13.6,0,0,0-5.06,1,14.2,14.2,0,0,0-9.1,13.15c0,7.18,5.46,13.15,12,13.25h.21a10.67,10.67,0,0,0,8.39-4.25,19.87,19.87,0,0,0,2.43-3.74A69.28,69.28,0,0,0,76.28,56.6C78,58.82,79.92,60,81.84,60s3.44-1.12,4.86-3.34c3.84-6.07,6.57-15.07,8.49-23.87a96.15,96.15,0,0,0,1.92-18.71,50.51,50.51,0,0,0-.4-7,11.07,11.07,0,0,0-1.62-5.25M67.79,41.63c-.92,1.72-3.14,5.36-6.58,6.07a5.37,5.37,0,0,1-1.31.1,7.94,7.94,0,0,1-7.79-6.67,9.13,9.13,0,0,1-.2-1.73,7.79,7.79,0,0,1,5.46-7.78,5.8,5.8,0,0,1,1.82-.31c3.64,0,7,3.65,8.9,9.31.1.3-.1.61-.3,1m23-3.34c-1.92,2.84-4.34,4.25-6.47,4.25H84c-5.16-.4-8.9-7.28-10.32-9.91A65.93,65.93,0,0,1,78.5,23c2.23-3.44,5.16-6.37,8.5-6.88.3,0,.61-.1.81-.1a5.59,5.59,0,0,1,4.65,2.73,11.49,11.49,0,0,1,1.72,6.07c-.1,6.17-1.41,10.52-3.34,13.45m27.21-6.06,1.41.5a1,1,0,0,1,.61,1,2.92,2.92,0,0,1-.2.91l-4,10.11-4.34-13.55h-6.07a5,5,0,0,0,0,1.22c1.41.5,1.92.4,2.43,1.72l5.25,14.76,3.14-.91,5.36-12.84A9.57,9.57,0,0,1,123.31,32v-.81h-5.26a1.77,1.77,0,0,0,0,1M158.7,45.78l-.2-6.07V32.63c0-1.21-.81-1.72-2-1.72a19.14,19.14,0,0,0-4.75.81v1.21h2.52v6.68l-.1,4.65a9.42,9.42,0,0,1-4,1c-2,0-2.33-1.52-2.33-3.24v-9.4c0-1.21-.71-1.72-1.92-1.72a23.63,23.63,0,0,0-5,.81v1.21h2.63v9.71c0,2.93.31,5.66,5,5.66,2.43,0,4.15-1.31,5.76-2.93,0,1.82.91,2.83,2.53,2.83a8.52,8.52,0,0,0,4.65-1.61l-.1-.91H158.7Zm19.83,0-.11-6.38V22.92c0-1.21-.4-1.52-1.61-1.52a37.81,37.81,0,0,0-5.46.61v1.42h2.83v7.78a17.64,17.64,0,0,0-2.63-.2c-4.86,0-8.7,3.54-8.7,9.31,0,6.47,3.34,8.09,6.67,8.09A6.07,6.07,0,0,0,174.18,46c0,1.11.4,2.43,2,2.43a10.05,10.05,0,0,0,5.16-1.52l-.21-1h-2.62Zm-4.35-6.38-.11,5.26a10.25,10.25,0,0,1-2.83.61c-2.32,0-3.94-1.72-3.94-5.66,0-4.55,1.21-6.78,4.35-6.78a6.74,6.74,0,0,1,2.53.51Zm16.58-8.59c-4.75,0-8.49,4.55-8.49,9.1,0,5.87,3.13,8.39,8.19,8.39,4.85,0,8.6-4.55,8.6-9-.11-5.76-2.84-8.49-8.3-8.49m.2,15.57c-3.33,0-4.14-3.44-4.14-7.08,0-3.33.81-6.57,3.74-6.57,3.24,0,3.94,3.24,3.94,7.18,0,3.24-.6,6.47-3.54,6.47m17.1-1L208,39.71V32.33c0-1.12-.5-1.32-1.41-1.32a26.64,26.64,0,0,0-5.56.71v1.41h2.83v6.68l-.1,5.46a1.43,1.43,0,0,1-.81,1.42l-1.92.6c0,.41.1.61.1,1h9.61a2.36,2.36,0,0,0,.2-1.11l-2.33-.5c-.4-.31-.5-.61-.5-1.32m36.1-6.57c0-4.35-2.12-8.09-7-8.09-5.16,0-8.59,4.45-8.59,9.3,0,5.06,3,8.19,8.69,8.19A9.07,9.07,0,0,0,244,45.47l-.51-1a23.05,23.05,0,0,1-4.65.61c-3.24,0-5.56-1.42-5.76-5.56h11.12ZM233,37.89c.1-3.64,1.61-5.36,3.54-5.36,2.32,0,3.13,2.22,3.13,5.36ZM205.83,27.17a2.53,2.53,0,1,0-2.53-2.53,2.5,2.5,0,0,0,2.53,2.53m10.82,7.38c0-1.21.91-2,2.63-2,3,0,3.74,1.62,4.15,3.54l1,.1L225,32a11.11,11.11,0,0,0-5.37-1.31c-3.43,0-6.47,2-6.47,5.26,0,5.76,8.7,5.36,8.7,8.19,0,1.41-1.21,2.22-2.83,2.22-2.43,0-3.95-1.62-4.35-4h-1.21l-.31,4.55a13.75,13.75,0,0,0,5.77,1.31c3.13,0,7.08-1.51,7.08-5.56-.1-5.16-9.31-4.75-9.31-8.09M138.07,45.78l-.2-6.17v-4c0-4.24-3.54-4.75-6.07-4.75a12.26,12.26,0,0,0-6.57,2.33l.5,1.21a18.87,18.87,0,0,1,4.25-.61c2.53,0,3.85.81,3.85,2.94v2l-2.74.3c-3.33.41-7,1.42-7,5.46a4,4,0,0,0,4.24,3.95,6.92,6.92,0,0,0,5.57-2.94c.1,1.83.7,2.84,2.93,2.84a6.91,6.91,0,0,0,4-1.72l-.1-.81h-2.73Zm-4.35-1.22a7.06,7.06,0,0,1-3.33.91,2,2,0,0,1-2.13-2.12c0-1.62,1.62-2.53,3.54-2.93l1.92-.31Z"></path></g></g></g></g></svg> 