<?xml version="1.0" encoding="UTF-8"?> <svg preserveAspectRatio="xMidYMid meet" xmlns="http://www.w3.org/2000/svg" xmlns:xlink="http://www.w3.org/1999/xlink" viewbox="0 0 290 86" width="290" height="86"><defs><style>.cls-1{fill:none;}.cls-2{clip-path:url(#clip-path);}.cls-3{clip-path:url(#clip-path-3);}.cls-4{fill:url(#Dégradé_sans_nom_3);}.cls-5{fill:#fff;}.cls-6{fill:#b12028;fill-rule:evenodd;}</style><clipPath id="clip-path"><rect class="cls-1" x="102" width="86" height="86"></rect></clipPath><clipPath id="clip-path-3"><path class="cls-1" d="M104.82,43.1A40.18,40.18,0,1,0,145,2.92,40.23,40.23,0,0,0,104.82,43.1"></path></clipPath><linearGradient id="Dégradé_sans_nom_3" x1="69.41" y1="-1390.42" x2="70.42" y2="-1390.42" gradientTransform="translate(-5427.93 110867.96) scale(79.71)" gradientUnits="userSpaceOnUse"><stop offset="0" stop-color="#99682e"></stop><stop offset="0.18" stop-color="#f5d38e"></stop><stop offset="0.3" stop-color="#f5d38e"></stop><stop offset="0.45" stop-color="#e6b864"></stop><stop offset="0.65" stop-color="#99682e"></stop><stop offset="0.81" stop-color="#e6b864"></stop><stop offset="1" stop-color="#99682e"></stop></linearGradient></defs><title>Main_M_Superbock-color</title><g id="M_Main_Partners_-_Logos" data-name="M_Main Partners - Logos"><g id="Superbock"><g class="cls-2"><g class="cls-2"><path d="M141.77.12a43,43,0,1,1-39.65,46.11A43,43,0,0,1,141.77.12"></path></g><g class="cls-3"><rect class="cls-4" x="104.82" y="2.92" width="80.36" height="80.36"></rect></g><g class="cls-2"><path class="cls-5" d="M145,80.46A37.46,37.46,0,1,1,182.46,43,37.52,37.52,0,0,1,145,80.46"></path><path class="cls-6" d="M111.24,34.73a34.74,34.74,0,1,1,25.4,42.05,34.73,34.73,0,0,1-25.4-42.05"></path><polygon class="cls-5" points="161.21 39.38 156.18 39.38 156.18 35.55 159.8 35.55 159.8 33.13 156.18 33.13 156.18 29.91 161.21 29.91 161.21 27.29 152.75 27.29 152.75 41.99 161.21 41.99 161.21 39.38"></polygon><path class="cls-5" d="M133.22,42.3c3.32,0,5.44-1.72,5.44-6v-9h-3.43v9c0,1.92-.5,2.92-2,2.92s-2-1-2-2.92v-9h-3.43v9c-.1,4.33,2,6,5.44,6"></path><path class="cls-5" d="M166.55,37.76c.3-.1.71-.2,1-.3l1.91,3.22A2.16,2.16,0,0,0,171.38,42h2.72l-3.52-5.94c2-1.21,2.62-2.51,2.62-4,0-2.42-1.11-4.74-5.14-4.74h-4.93V42h3.42Zm0-7.85h.81c1.1,0,2.41.4,2.41,2.12s-.5,2.41-3.22,3.32Z"></path><path class="cls-5" d="M138.05,43.81c-4.23,0-6.85,3.42-6.85,7.65s2.72,7.65,6.85,7.65,6.85-3.42,6.85-7.65-2.62-7.65-6.85-7.65m0,12.38c-2.11,0-3.52-2.11-3.52-4.73s1.41-4.73,3.52-4.73,3.53,2.11,3.53,4.73-1.41,4.73-3.53,4.73"></path><path class="cls-5" d="M120.33,39.48A10.18,10.18,0,0,1,116,38.27v3a9.09,9.09,0,0,0,4.83,1c3.12-.1,4.94-2.12,4.94-4.64,0-5.43-6.25-3.82-6.25-6.44a1.79,1.79,0,0,1,2-1.61,7,7,0,0,1,3.72,1.11V27.8a8.14,8.14,0,0,0-4.43-.81,4.73,4.73,0,0,0-4.93,4.53c0,5.34,6.14,3.73,6.14,6.55,0,.7-.4,1.41-1.71,1.41"></path><path class="cls-5" d="M170.68,44.11H167l-4.23,6.54V44.11H159.3v14.7h3.42v-7l3.83,5.64c.61.91,1,1.31,1.91,1.31h3l-5.44-8Z"></path><path class="cls-5" d="M127.88,51.06a3.5,3.5,0,0,0,1.41-2.92c0-2.82-2.41-4-4.83-4h-5.24v14.7h6c3.33,0,4.94-2,4.94-4.23a3.22,3.22,0,0,0-2.32-3.52m-5.13-4.64h1.41A1.6,1.6,0,0,1,126,48.24c0,.9-.2,1.91-1.61,1.91h-1.71V46.42Zm1.91,9.87h-1.91V52.37h1.81c1.21,0,2.11.3,2.11,1.81s-.8,2.11-2,2.11"></path><path class="cls-5" d="M146.31,51.46a7.43,7.43,0,0,0,7.75,7.65,6.1,6.1,0,0,0,3.43-.9V55a6.19,6.19,0,0,1-3.43,1.11c-2.31,0-4.12-1.71-4.12-4.63s1.81-4.63,4.12-4.63a6.19,6.19,0,0,1,3.43,1.11V44.71a6.1,6.1,0,0,0-3.43-.9,7.43,7.43,0,0,0-7.75,7.65"></path><path class="cls-5" d="M151.14,32c0-2.41-1.1-4.73-5-4.73h-4.94v14.8h3.43v-4l1.41-.51c3.93-1.51,5.13-3.42,5.13-5.54m-5.23,2.82-1.41.61V29.91h.8c1.11,0,2.42.4,2.42,2.11a2.63,2.63,0,0,1-1.81,2.82"></path></g></g></g></g></svg> 