<?xml version="1.0" encoding="UTF-8"?> <svg preserveAspectRatio="xMidYMid meet" xmlns="http://www.w3.org/2000/svg" xmlns:xlink="http://www.w3.org/1999/xlink" width="290" height="33.41" viewBox="0 0 290 33.41"><defs><clipPath id="clip-path"><rect x="59.05" width="171.91" height="33.41" style="fill:none"></rect></clipPath></defs><g id="M_Main_Partners_-_Logos" data-name="M_Main Partners - Logos"><g id="Julius_Bar" data-name="Julius Bar"><g style="clip-path:url(#clip-path)"><g style="clip-path:url(#clip-path)"><path d="M88.82,25.23v-17H82.41V9.34h2.44v9.4a7.88,7.88,0,0,1-1.28,4.53,4.49,4.49,0,0,1-3.8,2,2.67,2.67,0,0,1-2-.68,4.6,4.6,0,0,1-.89-3.24V8.23h-6V9.34h2V21.52a5.22,5.22,0,0,0,1.3,3.93,5.78,5.78,0,0,0,4.24,1.33,6.73,6.73,0,0,0,6.37-3.72v3.28h6.6V25.23Z" style="fill:#001489"></path><polygon points="100.73 25.23 100.73 0 94.5 0 94.5 1.11 96.75 1.11 96.75 25.23 94.5 25.23 94.5 26.34 103.35 26.34 103.35 25.23 100.73 25.23" style="fill:#001489"></polygon><polygon points="112.79 25.23 112.79 8.23 106.56 8.23 106.56 9.34 108.81 9.34 108.81 25.23 106.56 25.23 106.56 26.34 115.41 26.34 115.41 25.23 112.79 25.23" style="fill:#001489"></polygon><path d="M135.86,25.23v-17h-6.41V9.34h2.44v9.4a7.88,7.88,0,0,1-1.28,4.53,4.49,4.49,0,0,1-3.8,2,2.67,2.67,0,0,1-2-.68,4.6,4.6,0,0,1-.89-3.24V8.23h-6V9.34h2V21.52a5.22,5.22,0,0,0,1.3,3.93,5.79,5.79,0,0,0,4.24,1.33,6.73,6.73,0,0,0,6.37-3.72v3.28h6.6V25.23Z" style="fill:#001489"></path><path d="M190.72,19.22A6.88,6.88,0,0,1,189,24.34c-1.38,1.36-3.56,2-6.86,2H170V25.23h2.55V1.12H170V0h11.83c2.51,0,4.28.55,5.42,1.67a5.86,5.86,0,0,1,1.48,4.39c0,3.09-1.83,5.08-5.45,5.91,3.74.49,7.45,1.8,7.45,7.25m-6.18-5.37A4.82,4.82,0,0,0,181,12.63h-4v12.6h3.45c5,0,5.67-3.19,5.67-6.3,0-2.39-.51-4-1.54-5.08M182.85,2a3.43,3.43,0,0,0-2.55-.89H177V11.3h3c3,0,4.11-1.3,4.11-4.8,0-1.41-.13-3.41-1.23-4.49" style="fill:#001489"></path><path d="M230.1,11.62a9.57,9.57,0,0,0-3.32-.14c-3.32.41-4.95,4-4.95,7.42v6.3h2.44v1.11h-8.82V25.23h2.4V9.31h-2.62V8.2h6.6v6.18c1.93-4.09,4.13-6.29,6.37-6.25a9.41,9.41,0,0,1,2.77.44Z" style="fill:#001489"></path><path d="M206,15.66V19c0,2.48-1.16,6.41-4.27,6.41a1.88,1.88,0,0,1-1.39-.53c-.62-.61-.91-1.75-.91-3.58,0-3.2.71-3.95,2.85-4.58l3.72-1.1m4.32,9.13a3.24,3.24,0,0,1-.54-2.28V13.23a5.13,5.13,0,0,0-1.26-3.86c-1.08-1.06-2.91-1.58-5.6-1.58-2,0-6.65.44-6.65,4.52a1.39,1.39,0,0,0,.36,1,2,2,0,0,0,1.44.42,2,2,0,0,0,1.48-.44,2.1,2.1,0,0,0,.47-1.56,2.9,2.9,0,0,1,.69-2.18,3.1,3.1,0,0,1,2.32-.68,2.63,2.63,0,0,1,1.93.64c.75.74.85,2.15.85,3.43v1.46c-1.37.46-2.49.79-4,1.15l-2.22.51c-3.35.79-4.77,2.37-4.77,5.29,0,2,.41,3.28,1.3,4.16A5.25,5.25,0,0,0,200,26.78c2.69,0,4.35-.79,5.66-2.7.65,2.09,2.13,2.26,4.15,2.26h2.91V25.23c-1.3,0-2,0-2.39-.44" style="fill:#001489"></path><path d="M153.47,13.06V9A16.91,16.91,0,0,0,148,7.79c-3,0-6,1.71-6,5.54,0,3.44,2.94,4.52,5.54,5.47,2.25.83,4.37,1.61,4.37,3.75s-2,3.12-3.93,3.12c-2.79,0-4.68-1.73-5.1-4.85h-1.4v4.79a18.47,18.47,0,0,0,6.42,1.17,8.09,8.09,0,0,0,5.6-2.07A4.88,4.88,0,0,0,155,21.12c0-4.29-3.23-5.36-6.08-6.31-2.17-.73-4.05-1.35-4.05-3.27a2.18,2.18,0,0,1,.63-1.63,3.27,3.27,0,0,1,2.34-.79,4.31,4.31,0,0,1,2.76.85,5.78,5.78,0,0,1,1.65,3.09Z" style="fill:#001489"></path><path d="M110.8,4.93a2.32,2.32,0,0,0,2.34-2.31,2.34,2.34,0,0,0-4.68,0,2.32,2.32,0,0,0,2.34,2.31" style="fill:#001489"></path><path d="M199.59,4.93a2.31,2.31,0,1,0,0-4.61,2.32,2.32,0,0,0-2.34,2.3,2.32,2.32,0,0,0,2.34,2.31" style="fill:#001489"></path><path d="M207,4.93a2.31,2.31,0,1,0,0-4.61,2.32,2.32,0,0,0-2.34,2.3A2.32,2.32,0,0,0,207,4.93" style="fill:#001489"></path><path d="M59.47,0V1.11h2.41V26.36c-.12,3.32-.53,5.35-2.33,5.86l-.49.13v1a9.81,9.81,0,0,0,2.18-.16c3.19-.65,5-3.06,5.05-6.79V0Z" style="fill:#001489"></path></g></g></g></g></svg> 