<?xml version="1.0" encoding="UTF-8"?> <svg preserveAspectRatio="xMidYMid meet" xmlns="http://www.w3.org/2000/svg" xmlns:xlink="http://www.w3.org/1999/xlink" width="290" height="51.69" viewBox="0 0 290 51.69"><defs><clipPath id="clip-path"><rect x="48.95" width="191.36" height="51.69" style="fill:none"></rect></clipPath></defs><g id="M_Main_Partners_-_Logos" data-name="M_Main Partners - Logos"><g id="Swisscom"><g style="clip-path:url(#clip-path)"><g style="clip-path:url(#clip-path)"><path d="M174.42,20.63a12,12,0,0,0-3.86-.77c-1.46,0-2.61.38-2.61,1.72,0,3.16,8.13,1.22,8.13,7.72,0,4.4-3.57,6.09-7.59,6.09a18.5,18.5,0,0,1-5.39-.8l.32-3.85a18.34,18.34,0,0,0,4.88.89c1.56,0,2.84-.48,2.84-1.85,0-3.38-8.13-1.21-8.13-7.69,0-4.05,3.41-5.71,7.17-5.71a15.61,15.61,0,0,1,5.1.8Zm-14.86,0a12.15,12.15,0,0,0-3.86-.77c-1.46,0-2.64.38-2.64,1.72,0,3.16,8.16,1.22,8.16,7.72,0,4.4-3.6,6.09-7.59,6.09a19.22,19.22,0,0,1-5.45-.8l.35-3.85a18.69,18.69,0,0,0,4.91.89c1.5,0,2.8-.48,2.8-1.85,0-3.38-8.16-1.21-8.16-7.69,0-4.05,3.45-5.71,7.18-5.71a16.19,16.19,0,0,1,5.16.8Zm75.14-4.31c3.54,0,5.61,1.91,5.61,6.09V35h-4.72V23.37c0-1.88-.54-3.13-2.55-3.13s-3.76,1.76-3.76,4.91V35h-4.63V23.37c0-1.76-.57-3.13-2.58-3.13s-3.73,2-3.73,5.11V35h-4.78V16.7c3.12-.38,4.3.9,4.43,2.94a6.3,6.3,0,0,1,5.71-3.32c3.28,0,4.59,1.82,5.07,3.54a6.25,6.25,0,0,1,5.93-3.54m-96.15.38A132.09,132.09,0,0,1,133.25,35h-5L124.77,22.8h-.07L121.2,35h-5c-1.59-4.24-4.46-13.08-5.29-18.28h4.69l3.09,12.57h.06l3.7-12.57h4.69l3.6,12.47h.07L134,16.7Zm-30.4,3.93a12,12,0,0,0-3.86-.77c-1.46,0-2.58.38-2.58,1.72,0,3.16,8.1,1.22,8.1,7.72,0,4.4-3.57,6.09-7.59,6.09a18.5,18.5,0,0,1-5.39-.8l.29-3.85a18.69,18.69,0,0,0,4.91.89c1.56,0,2.84-.48,2.84-1.85,0-3.38-8.14-1.21-8.14-7.69,0-4.05,3.42-5.71,7.18-5.71a15.76,15.76,0,0,1,5.1.8Zm93.77,14.73c-5.2,0-8.84-2.84-8.84-9.22,0-5.71,3.83-9.82,9.38-9.82,5.16,0,8.51,2.9,8.51,9.12,0,6-3.63,9.92-9.05,9.92m.18-15c-2.1,0-4.11,1.56-4.11,5.58,0,3.48,1.31,5.42,4,5.42,2.33,0,4.12-1.88,4.12-5.58,0-3.54-1.28-5.42-4.06-5.42M140.68,35h4.69V16.7c-2.2-.22-4.69.39-4.69,3.83Zm2.59-20.57a2.94,2.94,0,0,0,3-2.91,3,3,0,0,0-5.9,0,3,3,0,0,0,2.91,2.91M187,35.3c-5.42,0-9-2.71-9-9.19,0-5.48,3-9.73,9.69-9.73a13.48,13.48,0,0,1,4.47.77l-1,3.83a9.63,9.63,0,0,0-3.32-.67c-3.41,0-4.81,2.23-4.81,5.58s1.27,5.42,4.62,5.42a9.25,9.25,0,0,0,3.7-.8l.54,3.77a10.59,10.59,0,0,1-4.91,1" style="fill:#fff"></path><path d="M62.54,43.48c.17.48.35,1,.57,1.44C58.45,42.3,56.32,38.8,56.32,36a7.33,7.33,0,0,1,1.17-3.83,14.15,14.15,0,0,1,3.79,6.57,39.21,39.21,0,0,0,1.26,4.71m9-29a107,107,0,0,1,9.09,6.63,21.32,21.32,0,0,0,.25-3.23A12.61,12.61,0,0,0,72.33,5.42a11.2,11.2,0,0,0-3.42-.63,7.48,7.48,0,0,0-1.33.12V11.7c1,.77,2.4,1.69,4,2.74M66.21.05a3.09,3.09,0,0,0-.75,0,6.8,6.8,0,0,0-1.87.39,4.55,4.55,0,0,0-1.47.83,2.78,2.78,0,0,0-1,1.58,3.43,3.43,0,0,0-.06.57c0,2.65,2.8,5.33,5.13,7.25ZM82.44,24.66c-.65-.68-1.36-1.36-2.12-2-4.39-3.92-11.08-7.88-14.11-10.25C63.59,10.33,61.15,8,60.32,5.82l-.52.39c-1.3,1-2.61,1.9-3.87,2.89-.83.66-1.64,1.34-2.43,2.06a24,24,0,0,0-2.16,2.22A9.28,9.28,0,0,0,49,18.55a6,6,0,0,0,0,.95,9.51,9.51,0,0,0,.13,1,8.08,8.08,0,0,0,1.49,3.25,18.84,18.84,0,0,0,2.79,2.86l.52.45c1.19,1,2.4,2,3.53,3.14a19.39,19.39,0,0,1,4.18,5.5,48.07,48.07,0,0,1,1.87,6.42q.09.35.21.69c.11.34.24.68.37,1a7.61,7.61,0,0,0,.78,1.43V36.53c-2-1.45-1.45-4.5-2.53-6.46-1.52-2.73-6.62-3.56-5.79-7.47.56-2.68,4.23-2.22,5.66-4.16a16.81,16.81,0,0,0,1.4-3.12,3.24,3.24,0,0,1,2.63-2h0V51.69a29.3,29.3,0,0,0,2.93-.4A33.19,33.19,0,0,0,73,50.35a30.82,30.82,0,0,0,3.23-1.21A27.55,27.55,0,0,0,79,47.75a23.42,23.42,0,0,0,3.25-2.29,16.67,16.67,0,0,0,3-3.3,13,13,0,0,0,2.3-6.87,10.34,10.34,0,0,0-.3-3,12.94,12.94,0,0,0-1.67-3.76,23.07,23.07,0,0,0-3.1-3.87" style="fill:#fff"></path></g></g></g></g></svg> 