<?xml version="1.0" encoding="UTF-8"?> <svg preserveAspectRatio="xMidYMid meet" xmlns="http://www.w3.org/2000/svg" viewBox="0 0 170 120"><defs><style>.cls-1{fill:none;stroke:#b3b3b3;stroke-miterlimit:10;}.cls-2{fill:#523f2e;}</style></defs><title>MJF_Site-Partners-Banner-Footer</title><g id="M_Sec-partners_-_Infos" data-name="M_Sec-partners - Infos"><rect class="cls-1" x="-11.5" y="-364.28" width="375" height="539"></rect></g><g id="M_Sec-partners_-_Logos" data-name="M_Sec-partners - Logos"><path class="cls-2" d="M66,74.8a1,1,0,0,0-.23.71V84.8h0s-5.08-9.06-5.33-9.48a1.8,1.8,0,0,0-.62-.66,1.94,1.94,0,0,0-1-.23H57.09a1,1,0,0,0-.81.33,1,1,0,0,0-.22.71V88.64a1,1,0,0,0,.22.7,1,1,0,0,0,.81.34H58a1,1,0,0,0,.81-.34,1,1,0,0,0,.22-.7V79.12h0s5.28,9.35,5.5,9.7a1.69,1.69,0,0,0,1.51.86h1.63a1,1,0,0,0,.81-.34,1,1,0,0,0,.22-.7V76.76H90.16a.77.77,0,0,0,.5-.16.7.7,0,0,0,.2-.54v-.9a.68.68,0,0,0-.2-.53.77.77,0,0,0-.5-.16H66.84a1,1,0,0,0-.81.33Zm37.74-31a33.14,33.14,0,0,0-8.09-8.49c-1-1-1.82-2.12-2.32-2.66-1.11-1.22-2.56-2.72-4.93-2.72a4.59,4.59,0,0,0-4.3,2.78c-.14.37-.25.82-.35,1-.23.37-1.24,2.1-1.66,2.79H84l-.92,1.74A12.19,12.19,0,0,1,86,37.82c.91,0,1.56.21,1.85.78.53,1.07.53,4.29,1.43,6.71a14.77,14.77,0,0,0,5.19,6.22.18.18,0,0,0,.28-.13.19.19,0,0,0-.07-.15,17.87,17.87,0,0,1-4.33-6.39c-.83-2.27-.69-5.46-1.42-6.88a2.54,2.54,0,0,0-2.44-1.19,8.4,8.4,0,0,0-1.79.23l.82-1.4h-1.4c.3-.53.61-1,.76-1.29s.18-.55.35-1a3.36,3.36,0,0,1,3.24-2.19c1.92,0,3,1.23,4.16,2.47a29,29,0,0,0,2.33,2.66,35.7,35.7,0,0,1,3.88,3.32,34.8,34.8,0,0,1,3.82,4.7,86.94,86.94,0,0,1,10,18.58l0,0c-5.18-3.52-9.67-6.84-13.3-11a41.79,41.79,0,0,1-6.74-10.59c-.13-.29-.24-.56-.37-.83,0-.12-.1-.15-.18-.15a.17.17,0,0,0-.17.18,5.84,5.84,0,0,0,.16.85c1,4.46,3.9,8.46,7,11.78a64.5,64.5,0,0,0,9.33,8.22l2.2,6.32a1.31,1.31,0,0,1,.12.47.33.33,0,0,1-.1.26.45.45,0,0,1-.33.1h-.67a.71.71,0,0,1-.5-.13.73.73,0,0,1-.22-.35c-.2-.59-1.36-3.91-1.59-4.59,0-.12-.11-.16-.19-.16a.17.17,0,0,0-.18.17,4.32,4.32,0,0,0,.08.46c.3,1.52.65,3.21.79,3.86a4.82,4.82,0,0,1,.14.78.56.56,0,0,1-.2.44l-.68.69c-.17.17-.26.21-.39.21s-.3-.12-.36-.4c-.78-3.63-2-8.13-2.26-9.38-.07-.28-.12-.43-.29-.43s-.19.1-.19.22a2.58,2.58,0,0,0,0,.29c.18,1.29.93,6,1.74,10.27.14.74.42,1.14,1,1.14a1.18,1.18,0,0,0,.82-.35l1-1a1.48,1.48,0,0,1,1.22-.49h1.51a1,1,0,0,0,.73-.25.91.91,0,0,0,.27-.68,2.6,2.6,0,0,0-.2-.89c-.39-1-1.64-4.57-2-5.56l0,0c1.28,1,3.14,2.21,4,2.21.25,0,.41-.12.41-.52,0-1.88-3.14-9.62-10.29-20.28ZM75.36,78.32A5.46,5.46,0,0,0,69.81,84a5.57,5.57,0,0,0,5.57,5.86,5.76,5.76,0,0,0,4.35-1.78,3.06,3.06,0,0,0,.75-1.59.52.52,0,0,0-.11-.36A.49.49,0,0,0,80,86H78.3a.79.79,0,0,0-.71.36,2.45,2.45,0,0,1-2.2,1.08A2.55,2.55,0,0,1,72.79,85h7.12a1,1,0,0,0,.7-.22,1.08,1.08,0,0,0,.25-.84,6,6,0,0,0-1.3-3.8,5.24,5.24,0,0,0-4.2-1.8Zm11,0c-2.8,0-4.64,1.33-4.64,3.46a2.62,2.62,0,0,0,.73,1.85,4.55,4.55,0,0,0,2.35,1.23l2.34.59c.65.17,1.22.36,1.22.92,0,.87-.92,1.17-1.9,1.17a3.12,3.12,0,0,1-1.4-.3,1.67,1.67,0,0,1-.7-.62c-.15-.24-.21-.41-.44-.54a1.11,1.11,0,0,0-.55-.09H82.07a.57.57,0,0,0-.5.19.66.66,0,0,0-.13.44A2.45,2.45,0,0,0,81.92,88a5.6,5.6,0,0,0,4.49,1.88c2,0,4.87-.85,4.87-3.59a2.87,2.87,0,0,0-.58-1.8,3.94,3.94,0,0,0-2.33-1.35l-2.32-.59c-1-.25-1.41-.42-1.41-1s.51-1,1.69-1a2.34,2.34,0,0,1,1.74.59c.34.35.28.54.54.68a1.47,1.47,0,0,0,.64.08H90.4a.51.51,0,0,0,.42-.14.64.64,0,0,0,.14-.47,2.52,2.52,0,0,0-1-1.74,5.61,5.61,0,0,0-3.67-1.18ZM68.66,31.92a1.35,1.35,0,0,1,1.25-.79,1.36,1.36,0,0,1,1.38,1.38,1.34,1.34,0,0,1-.56,1.1,2.56,2.56,0,0,1,.13.73,1.84,1.84,0,0,1-1.46,1.78,2.61,2.61,0,0,1-.71,1.34c-.62.59-1.24.59-1.24.84s.09.21.35.21a2.23,2.23,0,0,0,2.38-1.69,2.61,2.61,0,0,0,1.74-2.33,1.31,1.31,0,0,0-.11-.6,2.09,2.09,0,0,0,.64-1.51,2.44,2.44,0,0,0-.76-1.74,2.51,2.51,0,0,0-3.81.39,3,3,0,0,0-2.56,3h-.15a1.39,1.39,0,0,0-1.27-1,3.16,3.16,0,0,0-3-2.4,3.1,3.1,0,0,0-.6.05,2.41,2.41,0,0,0-1.72-.7,2.51,2.51,0,0,0-2.52,2.53,2.3,2.3,0,0,0,1.15,2s0,.11,0,.16a3.21,3.21,0,0,0,3,2.89,1,1,0,0,0,.76.75v.14h-.16c-2.5,0-3.57,1.21-3.57,2a2.13,2.13,0,0,0-1.22,1.91A2.52,2.52,0,0,0,58.64,45,2.32,2.32,0,0,0,60,44.49a2.91,2.91,0,0,0,.92.14A2.39,2.39,0,0,0,63,43.58h.23a2.44,2.44,0,0,0,2.09-1.38,1,1,0,0,0,.14-.46c0-.11,0-.2-.16-.2s-.16.13-.42.37a3.49,3.49,0,0,1-2.35.71,1.94,1.94,0,0,1-1.61,1,2,2,0,0,1-1.18-.37,1.36,1.36,0,0,1-1,.46,1.32,1.32,0,0,1-1.38-1.38,1.37,1.37,0,0,1,.88-1.28c.09-1,1.18-1.7,2.53-1.7l.53,0a2,2,0,0,1,1.39-.77,1.18,1.18,0,0,0,.34-.07.22.22,0,0,0,.12-.21.24.24,0,0,0-.11-.21,1.34,1.34,0,0,0-.34-.09,2.36,2.36,0,0,1-1.8-1.49,2.66,2.66,0,0,1-2.68-2.63v-.09a1.38,1.38,0,0,1,.51-2.66,1.4,1.4,0,0,1,1.12.56,2.61,2.61,0,0,1,.69-.08,2.57,2.57,0,0,1,2.61,2.14A2.12,2.12,0,0,1,65,35.68c.05.26.09.49.26.49s.23-.21.29-.48a2.13,2.13,0,0,1,.69-1.27,2.44,2.44,0,0,1,2.43-2.5Zm24,46.79h-.58a.74.74,0,0,0-.5.17.66.66,0,0,0-.19.53v.7a.7.7,0,0,0,.19.54.79.79,0,0,0,.5.16h.58v5.1a3.58,3.58,0,0,0,1,2.79,3.65,3.65,0,0,0,2.8,1h.87a.7.7,0,0,0,.5-.17.64.64,0,0,0,.22-.53v-.89a.66.66,0,0,0-.22-.53.75.75,0,0,0-.5-.16h-.12A1.68,1.68,0,0,1,96.09,87a1.74,1.74,0,0,1-.46-1.3v-4.9h1.86a.8.8,0,0,0,.51-.16.7.7,0,0,0,.19-.54v-.7a.66.66,0,0,0-.19-.53.75.75,0,0,0-.51-.17H95.64V75.38a1,1,0,0,0-.2-.62.86.86,0,0,0-.69-.29H93.6a.84.84,0,0,0-.69.29,1,1,0,0,0-.2.62v3.33ZM99,88.77a1,1,0,0,0,.2.61.82.82,0,0,0,.69.3h1.21a.82.82,0,0,0,.69-.3,1,1,0,0,0,.2-.61V75.38a1,1,0,0,0-.2-.62.84.84,0,0,0-.69-.29H99.86a.84.84,0,0,0-.69.29,1,1,0,0,0-.2.62V88.77ZM71.63,39.94c-.48.69-.82,1-1.92,2.32a19.91,19.91,0,0,0-3.46,6.15c.21,0,.5,0,.83,0h.51l.16-.32a22.9,22.9,0,0,1,3-5.14l.46-.54A10.07,10.07,0,0,0,74,37.63a3.63,3.63,0,0,1,.86-2A2.36,2.36,0,0,1,76.47,35a3.47,3.47,0,0,1,1.44.36,2.41,2.41,0,0,0,1.22.26l.44,0-.71,1,1,.68a3.54,3.54,0,0,0-2.08,2.08.73.73,0,0,0-.06.26.15.15,0,0,0,.16.16c.14,0,.24-.1.41-.31.6-.71,1.07-1.2,3.26-1.89L80,36.38l1.17-1.7H80a3.72,3.72,0,0,1-1.76-.29,4.07,4.07,0,0,0-2-.54,3.37,3.37,0,0,0-2.36.93,5,5,0,0,0-1.28,2.68,7.34,7.34,0,0,1-1.05,2.48Zm2.36,7a27.69,27.69,0,0,0-2,2.92c.2.09.84.44,1.07.56.7-1.07,1.68-2.38,2.33-3.37a3.91,3.91,0,0,0,.86-2.49c0-.21,0-.4,0-.6a2.68,2.68,0,0,1,.81-1.84,2.4,2.4,0,0,1,1.7-.66c.62,0,1,.17,1.51.17a2.47,2.47,0,0,0,.9-.18l.19-.07-.47,1.12,1.11.45a6.11,6.11,0,0,0-2.25,4.57,8.91,8.91,0,0,0,.29,2.22.18.18,0,0,0,.18.15.18.18,0,0,0,.18-.18v-.23a12,12,0,0,1,.36-2.74,7,7,0,0,1,2.94-3.91L82,42l.75-1.85-.83.17a5.88,5.88,0,0,1-1.3.2,4.05,4.05,0,0,1-1-.14,4.24,4.24,0,0,0-1.06-.13,3.35,3.35,0,0,0-2.27.88A4.19,4.19,0,0,0,75,44.3,3.85,3.85,0,0,1,74,46.91Zm26.25.62a.29.29,0,0,0-.22-.13.17.17,0,0,0-.18.17c0,.15.1.32.35.75a21.5,21.5,0,0,0,2.93,3.9A28.67,28.67,0,0,0,107.51,56l.5.35a.31.31,0,0,0,.18.08.19.19,0,0,0,.18-.18.19.19,0,0,0-.08-.15c-1.5-1.37-3.1-3-4.61-4.62-1.17-1.26-2.38-2.59-3.44-3.93ZM72.81,82.8a2.42,2.42,0,0,1,2.56-2.19,2.45,2.45,0,0,1,2.56,2.19ZM67.32,42.9a8.06,8.06,0,0,1,.8-1.07,17.76,17.76,0,0,0-2.64-3.73l-.47.46a25.94,25.94,0,0,1,2.31,4.34Zm-7.5-9.24c-.09-.08-.11-.13-.11-.19a.15.15,0,0,1,.16-.15l.13,0a8,8,0,0,1,2,1.1,9.4,9.4,0,0,1,1.41,1.36L63,36.3c-.53-.44-2.25-1.88-3.14-2.64Zm7.25,3.43-.55-.34a8.2,8.2,0,0,1,1.32-2.21,12.52,12.52,0,0,1,1.1-1.09c.1-.07.15-.13.24-.13a.17.17,0,0,1,.17.16.29.29,0,0,1-.06.15c-.62,1-1.84,2.9-2.22,3.46Zm-6.93,4.75a.9.9,0,0,1-.27.08.16.16,0,0,1-.16-.17c0-.07,0-.11.1-.17A7.86,7.86,0,0,1,63.7,40l.18.62-3.74,1.27ZM86.37,33.9a.91.91,0,0,1,.85-1,1.52,1.52,0,0,1,.62.13c.24.11.41.27.41.45s-.19.37-.46.59a1.73,1.73,0,0,1-1,.45c-.35,0-.46-.34-.46-.62ZM76,36.89a.86.86,0,0,1,.78-.93,1,1,0,0,1,.68.28.43.43,0,0,1,.17.33c0,.24-.24.48-.51.64a1.31,1.31,0,0,1-.64.21c-.31,0-.48-.2-.48-.53ZM78.4,43.2a1.1,1.1,0,0,1,0-.35.65.65,0,0,1,.68-.52,1.06,1.06,0,0,1,.59.17.44.44,0,0,1,.21.37c0,.44-.74,1-1.1,1s-.43-.26-.43-.62ZM113,76.76a.75.75,0,0,0,.5-.16.67.67,0,0,0,.2-.54v-1a.87.87,0,0,0-.2-.68.64.64,0,0,0-.5-.2,5.93,5.93,0,0,0-.6,0l-8.16.81a.56.56,0,0,0-.57.6v.54a.49.49,0,0,0,.12.38.51.51,0,0,0,.4.15Zm-4.51,1.56A5.45,5.45,0,0,0,103,84a5.56,5.56,0,0,0,5.56,5.86,5.74,5.74,0,0,0,4.35-1.78,3,3,0,0,0,.76-1.59.48.48,0,0,0-.12-.36.49.49,0,0,0-.42-.16h-1.64a.8.8,0,0,0-.72.36,2.45,2.45,0,0,1-2.2,1.08A2.57,2.57,0,0,1,106,85h7.14a1,1,0,0,0,.7-.22,1.08,1.08,0,0,0,.26-.84,6,6,0,0,0-1.3-3.8,5.3,5.3,0,0,0-4.23-1.8ZM106,82.8a2.59,2.59,0,0,1,5.12,0ZM74.37,56.11c-1.39,0-2-.66-2-1.49,0-1.45,2.55-2.87,4.84-3.75l.59.77c-1.41.56-4.25,1.77-4.25,2.81,0,.37.21.63,1.07.63a11.13,11.13,0,0,0,4.58-1.45,1,1,0,0,1,.37-.1.49.49,0,0,1,.46.26l.25.34a13.23,13.23,0,0,1-5.91,2Zm3.8.38a8.54,8.54,0,0,1-4,1.26,4.16,4.16,0,0,1-3.63-2.14c-.43-.65-.77-1.47-1.18-2.19a2.11,2.11,0,0,0-2-1.32,6.65,6.65,0,0,0-2.56.72l0,.2c.07.31.2.54.49.54a1.13,1.13,0,0,0,.34-.08,4,4,0,0,1,1.35-.29c.77,0,1.14.45,1.66,1.56l.19.4a10.68,10.68,0,0,1-2.71.28h-.44l.07.44a.54.54,0,0,0,.26.41,2.24,2.24,0,0,0,.91.1,10.81,10.81,0,0,0,2.51-.26,5.46,5.46,0,0,0,4.65,2.58,9.11,9.11,0,0,0,4.25-1.27l-.26-.94Zm1.39.46L79.32,56a17.19,17.19,0,0,1,7.1-2.34c.06,1.18,0,2.66.84,2.66s2.54-2.06,4.55-4.63c.18.17.48.36.74.56l-.51.66c-2,2.52-3.62,4.67-5,4.67s-1.76-1.5-1.78-2.63a13.55,13.55,0,0,0-5.71,2Zm27.07-20.53c-.8,0-1-.44-1-1.06a11.43,11.43,0,0,1,1.32-4.19h-1.24a61.35,61.35,0,0,1-4.55,6.9l.78.85a32.09,32.09,0,0,0,2.43-3.58h.16c0,.07,0,.15,0,.23a1.84,1.84,0,0,0,2.06,2,14,14,0,0,0,3.64-.9c1.1-.38,2.12-.77,2.62-.91V34.54c-.58.18-1.74.63-2.95,1.05a12.66,12.66,0,0,1-3.24.83Zm2.73,3.72c1.23-.52,3.43-1.4,4.7-1.86V37A88.37,88.37,0,0,0,104,41.48c.08.1.61.85.67.94a9.57,9.57,0,0,1,3.49-.88,17.68,17.68,0,0,0,4.67-.47v-.94a22,22,0,0,1-3.1.45c-.46,0-.6-.06-.6-.22s.07-.15.24-.22Zm-26.7,6.69h5.23l-.39-.94H83.15l-.49.94ZM64.32,51.5a3.59,3.59,0,0,0,1.43-.36,3.54,3.54,0,0,1,1.37-.32,12.34,12.34,0,0,1,4.35,1.24.76.76,0,0,0,.27,0,.56.56,0,0,0,.51-.32l.18-.34a14,14,0,0,0-5.36-1.88,3.51,3.51,0,0,0-1.43.32,3.71,3.71,0,0,1-1.28.38c-1,0-3.68-1-3.68-2,0-1.17,4.21-1.62,4.67-1.62l.42-1c-3.06,0-6.7,1.08-6.7,2.5,0,.41.24.61.24,1s-.24.86-.24,1.43a2.77,2.77,0,0,0,.49,1.28c.29.44.63.73.63,1.1A8.92,8.92,0,0,0,60,54.22c0,1.38.79,2.22,2.33,3.87l.3.33c-1.27.49-3.63,1.51-4.18,1.75-1.91.79-2.39,1.77-2.39,3.3,0,.59,0,1.27,0,1.87h.36c.77,0,.86-.46.86-.9,0-.29,0-.63,0-1a2,2,0,0,1,1.41-2.22C59.28,61,62,59.87,64,59a4.57,4.57,0,0,1,1.76-.47,5.07,5.07,0,0,1,2.46.88,10.3,10.3,0,0,1,2.38,1.92l.87-.66a11.38,11.38,0,0,0-2.81-2.28,5.68,5.68,0,0,0-2.73-1,3.27,3.27,0,0,0-.85.12,3.29,3.29,0,0,1-.86.15,1.38,1.38,0,0,1-1.16-.62c-.17-.2-1.28-1.45-1.51-1.82a1.8,1.8,0,0,1-.32-.93,1.21,1.21,0,0,1,.13-.57,7,7,0,0,0,3.56,1.36l-.19-1c-2.06-.54-4.25-2.35-4.25-3.52a1.51,1.51,0,0,1,.16-.63,7,7,0,0,0,3.68,1.5ZM79,51.69a6.08,6.08,0,0,1,3.69-1,18.87,18.87,0,0,1,2.2.2,15,15,0,0,0,1.93.14,9.22,9.22,0,0,0,3.42-.78,6,6,0,0,0,.71.71,9.12,9.12,0,0,1-4.1,1.21,18.25,18.25,0,0,1-2.36-.2,15.07,15.07,0,0,0-1.92-.15,8.39,8.39,0,0,0-3,.62L79,51.69Zm19,3.65a15.75,15.75,0,0,1-6.26,6.94,7.62,7.62,0,0,1-4.37,1.07H82.63a13.37,13.37,0,0,0-3.62.44,8.66,8.66,0,0,1-2.38.47A4.76,4.76,0,0,1,73.42,63l1.13-.89L74,61.32c-.33.24-4.33,3.19-5.17,3.86l0,0c0-.21,0-.39,0-.57,0-2.25-1-2.8-2.63-3.43l-1.07.63c2.18.73,2.72,1.31,2.72,2.94a2.16,2.16,0,0,1-1.13,2.19,4.63,4.63,0,0,1-2.28.58.71.71,0,0,0-.57.17.8.8,0,0,0-.18.57v.36h.25a6,6,0,0,0,4-1.31l4.53-3.54a6,6,0,0,0,4.2,1.76A9.92,9.92,0,0,0,79.44,65a11.53,11.53,0,0,1,3.19-.36h4.8a8.83,8.83,0,0,0,4.95-1.25A16.11,16.11,0,0,0,99,56c-.36-.22-.7-.43-1-.62Zm-7.71,3.84A12.37,12.37,0,0,1,95.39,54c-.29-.17-.7-.44-.91-.58a10.08,10.08,0,0,0-3,2.31c-2,2.13-1.86,3.35-4,4.18a15.29,15.29,0,0,1-2.06.63c-.5-1.55-1.76-3.08-3.09-3.08a9,9,0,0,0-3.21,1,25.94,25.94,0,0,0-3.18,1.64l.56.75c.43-.23,1.67-.85,2.91-1.38a8.29,8.29,0,0,1,2.7-.84c1.05,0,1.74,1.2,2.12,2.16a23.79,23.79,0,0,1-4.34.41.73.73,0,0,0-.54.14.9.9,0,0,0-.24.48L79,62.2h.74c3.82,0,7.43-.6,9.76-2a3.41,3.41,0,0,0,1,.15A6.33,6.33,0,0,0,94.06,59a.82.82,0,0,0,.38-.69,1.55,1.55,0,0,0,0-.31l0-.4c-1.22,1-2.25,1.7-3.51,1.7a1.54,1.54,0,0,1-.53-.07Z"></path></g></svg> 