<?xml version="1.0" encoding="UTF-8"?> <svg preserveAspectRatio="xMidYMid meet" xmlns="http://www.w3.org/2000/svg" xmlns:xlink="http://www.w3.org/1999/xlink" viewbox="0 0 170 120" width="170" height="120"><defs><style>.cls-1,.cls-2{fill:none;}.cls-2{stroke:#b3b3b3;stroke-miterlimit:10;}.cls-3{clip-path:url(#clip-path);}.cls-4{fill:#fff;}.cls-5{fill:#ee7d00;}</style><clipPath id="clip-path"><rect class="cls-1" x="36.15" y="42.97" width="97.71" height="34.06"></rect></clipPath></defs><title>color-Sec_M_LoRo</title><g id="M_Sec-partners_-_Infos" data-name="M_Sec-partners - Infos"><rect class="cls-2" x="-193.5" y="-232.22" width="375" height="539"></rect></g><g id="M_Sec-partners_-_Logos" data-name="M_Sec-partners - Logos"><g id="Loterie_Romande" data-name="Loterie Romande"><g class="cls-3"><rect class="cls-4" x="36.15" y="42.97" width="97.71" height="34.06"></rect><g class="cls-3"><path class="cls-5" d="M41.21,43.67H36.84v4.76a15.28,15.28,0,0,1,4.37-4.76"></path><path class="cls-5" d="M50.05,67A10.73,10.73,0,1,0,39.32,56.28,10.68,10.68,0,0,0,50.05,67m0-15.39a6.85,6.85,0,1,1-6.75,6.85,6.71,6.71,0,0,1,6.75-6.85"></path><path class="cls-5" d="M58.89,43.67a15.36,15.36,0,1,1-22,20.45V76.33h96.32V43.67H58.89"></path><path class="cls-4" d="M50.05,71.67a15.4,15.4,0,0,0,8.74-28H41.21a15.39,15.39,0,0,0-4.37,4.76V64a15.28,15.28,0,0,0,13.21,7.65m0-26.22A10.78,10.78,0,1,1,39.32,56.28,10.76,10.76,0,0,1,50.05,45.45"></path><path class="cls-4" d="M50.05,65.31a6.85,6.85,0,1,0-6.75-6.85,6.71,6.71,0,0,0,6.75,6.85"></path><polygon class="cls-4" points="79.54 49.82 82.32 49.82 82.32 55.48 84.9 55.48 84.9 57.87 79.54 57.87 79.54 49.82"></polygon><path class="cls-4" d="M85.89,53.79a4.56,4.56,0,0,1,.3-1.68,3,3,0,0,1,.9-1.29,3.8,3.8,0,0,1,1.39-.8,4.73,4.73,0,0,1,1.78-.3,5.17,5.17,0,0,1,1.79.3,6.3,6.3,0,0,1,1.39.8,3.52,3.52,0,0,1,.89,1.29,4.56,4.56,0,0,1,.3,1.68,5.6,5.6,0,0,1-.3,1.79A4,4,0,0,1,93.44,57a4.15,4.15,0,0,1-1.39.9,5,5,0,0,1-1.79.29,5.36,5.36,0,0,1-1.78-.29,4.06,4.06,0,0,1-1.39-.9,3.35,3.35,0,0,1-.9-1.39,11.15,11.15,0,0,1-.3-1.79m2.88,0a1.48,1.48,0,0,0,.1.7l.3.6a1,1,0,0,0,.5.39,1.23,1.23,0,0,0,.59.1,1.27,1.27,0,0,0,.6-.1,1,1,0,0,0,.49-.39c.1-.2.3-.3.3-.6a1.7,1.7,0,0,0,.1-.7,1.46,1.46,0,0,0-.1-.69,2.19,2.19,0,0,0-.3-.5.78.78,0,0,0-.49-.29,1.17,1.17,0,0,0-.6-.11,1.13,1.13,0,0,0-.59.11,1.88,1.88,0,0,0-.5.29.85.85,0,0,0-.3.5c0,.2-.1.4-.1.69"></path><polygon class="cls-4" points="100.39 57.87 97.71 57.87 97.71 52.11 95.72 52.11 95.72 49.82 102.28 49.82 102.28 52.11 100.39 52.11 100.39 57.87"></polygon><polygon class="cls-4" points="103.77 49.82 109.33 49.82 109.33 52.11 106.35 52.11 106.35 52.8 109.13 52.8 109.13 54.89 106.35 54.89 106.35 55.58 109.53 55.58 109.53 57.87 103.77 57.87 103.77 49.82"></polygon><path class="cls-4" d="M111.31,49.82h3.48a4.79,4.79,0,0,1,1.19.1,4.63,4.63,0,0,1,1.09.4,1.81,1.81,0,0,1,.7.79,2.49,2.49,0,0,1,.3,1.29,2,2,0,0,1-.4,1.29,2.22,2.22,0,0,1-1,.9l2,3.27h-3.08L114.09,55H114v2.87h-2.59v-8m2.48,3.38h.8a.37.37,0,0,0,.3-.1.22.22,0,0,0,.2-.2.39.39,0,0,0,.09-.3c0-.1,0-.29-.09-.29l-.2-.2c-.1,0-.2-.1-.3-.1h-.89V53.2Z"></path><rect class="cls-4" x="119.65" y="49.82" width="2.68" height="8.04"></rect><polygon class="cls-4" points="124.02 49.82 129.58 49.82 129.58 52.11 126.61 52.11 126.61 52.8 129.38 52.8 129.38 54.89 126.61 54.89 126.61 55.58 129.78 55.58 129.78 57.87 124.02 57.87 124.02 49.82"></polygon><path class="cls-4" d="M67.62,61.54H71.1a4.79,4.79,0,0,1,1.19.1,2.86,2.86,0,0,1,1,.4,1.71,1.71,0,0,1,.7.79,2.46,2.46,0,0,1,.3,1.29,2,2,0,0,1-.4,1.29,2.14,2.14,0,0,1-1,.89l2,3.28H71.79L70.31,66.7H70.2v2.88H67.62v-8m2.58,3.37H71a.39.39,0,0,0,.3-.09.22.22,0,0,0,.2-.2.37.37,0,0,0,.1-.3c0-.1,0-.3-.1-.3l-.2-.2c-.1,0-.2-.1-.3-.1h-.89v1.19Z"></path><path class="cls-4" d="M75.37,65.41a4.66,4.66,0,0,1,.3-1.69,3,3,0,0,1,.89-1.29A4,4,0,0,1,78,61.64a4.79,4.79,0,0,1,1.79-.3,5.54,5.54,0,0,1,1.78.3,6.05,6.05,0,0,1,1.39.79,3.87,3.87,0,0,1,.9,1.29,4.66,4.66,0,0,1,.3,1.69,5.6,5.6,0,0,1-.3,1.79,4.15,4.15,0,0,1-.9,1.39,4,4,0,0,1-1.39.89,4.73,4.73,0,0,1-1.78.3,5.6,5.6,0,0,1-1.79-.3,4.13,4.13,0,0,1-1.39-.89,3.3,3.3,0,0,1-.89-1.39,4.79,4.79,0,0,1-.3-1.79m2.78,0a1.48,1.48,0,0,0,.1.7l.3.59a.93.93,0,0,0,.49.4,1.27,1.27,0,0,0,.6.1,1.21,1.21,0,0,0,.59-.1,1,1,0,0,0,.5-.4c.1-.2.3-.3.3-.59a1.7,1.7,0,0,0,.1-.7,1.42,1.42,0,0,0-.1-.69,2.19,2.19,0,0,0-.3-.5.85.85,0,0,0-.5-.3,1.21,1.21,0,0,0-.59-.1,1.27,1.27,0,0,0-.6.1,1.9,1.9,0,0,0-.49.3.85.85,0,0,0-.3.5c0,.3-.1.49-.1.69"></path><polygon class="cls-4" points="87.68 65.02 87.88 69.48 85.3 69.48 85.3 61.54 88.87 61.54 90.26 65.81 90.36 65.81 91.55 61.54 95.23 61.54 95.23 69.48 92.65 69.48 92.65 65.02 91.16 69.48 89.27 69.48 87.78 65.02 87.68 65.02"></polygon><path class="cls-4" d="M99.3,61.54h2.88l3.08,7.94h-2.88l-.4-1.19H99.4L99,69.48H96.12Zm1.39,2.78-.7,2h1.29Z"></path><polygon class="cls-4" points="106.25 61.54 108.93 61.54 111.21 65.51 111.11 61.54 113.7 61.54 113.7 69.48 110.92 69.48 108.73 65.71 108.63 65.71 108.83 69.48 106.25 69.48 106.25 61.54"></polygon><path class="cls-4" d="M115.19,69.48V61.54h3a10.78,10.78,0,0,1,1.79.2,3.46,3.46,0,0,1,1.49.59,4.18,4.18,0,0,1,1.09,1.19,3.56,3.56,0,0,1,.4,1.89,3.39,3.39,0,0,1-.4,1.79,6,6,0,0,1-1,1.29,3.32,3.32,0,0,1-1.49.69,4.87,4.87,0,0,1-1.69.2h-3.17m2.58-5.56V67.2h.49a2.36,2.36,0,0,0,1.49-.4,1.79,1.79,0,0,0,.5-1.39,1.65,1.65,0,0,0-.5-1.19,1.91,1.91,0,0,0-1.39-.4Z"></path><polygon class="cls-4" points="124.02 61.54 129.58 61.54 129.58 63.72 126.61 63.72 126.61 64.42 129.38 64.42 129.38 66.5 126.61 66.5 126.61 67.3 129.78 67.3 129.78 69.48 124.02 69.48 124.02 61.54"></polygon></g></g></g></g></svg> 