<?xml version="1.0" encoding="UTF-8"?> <svg preserveAspectRatio="xMidYMid meet" xmlns="http://www.w3.org/2000/svg" xmlns:xlink="http://www.w3.org/1999/xlink" id="M_Sec-partners_-_Logos" width="170" height="120" viewBox="0 0 170 120"><defs><clipPath id="clippath"><rect x="20.65" y="30.04" width="128.69" height="65.88" style="fill:none; stroke-width:0px;"></rect></clipPath><clipPath id="clippath-1"><rect x="20.65" y="30.04" width="128.69" height="65.88" style="fill:none; stroke-width:0px;"></rect></clipPath></defs><g id="Socar"><g style="clip-path:url(#clippath);"><g style="clip-path:url(#clippath-1);"><path d="m35.11,64.98c1.38,0,2.11-.73,2.11-2.11v-2.11c0-1.38-.73-2.11-2.11-2.11h-14.31v8.57h1.96v-2.25h12.35Zm.22-4.07v1.89c0,.22-.15.36-.36.36h-12.2v-2.54h12.2c.22-.07.36.07.36.29m6.46,6.32c-1.38,0-2.11-.73-2.11-2.11v-4.36c0-1.38.73-2.11,2.11-2.11h11.91c1.38,0,2.11.73,2.11,2.11v4.36c0,1.38-.73,2.11-2.11,2.11h-11.91Zm11.76-1.89c.22,0,.36-.14.36-.36v-4.14c0-.22-.14-.36-.36-.36h-11.55c-.22,0-.36.15-.36.36v4.14c0,.22.15.36.36.36h11.55Zm19.24-1.02c1.16.51,1.96,1.6,1.96,2.9h-1.96c0-1.53-.73-2.25-2.25-2.25h-10.31v2.25h-1.96v-8.57h14.38c1.38,0,2.11.73,2.11,2.11v1.45c0,1.31-.73,2.03-1.96,2.11m-.36-1.24c.22,0,.36-.14.36-.36v-1.89c0-.22-.14-.36-.36-.36h-12.2v2.54h12.2v.07Zm4.65-2.32c0-1.38.73-2.11,2.11-2.11h14.02v1.6h-13.87c-.22,0-.36.14-.36.36v1.16c0,.22.14.36.36.36h12.06c1.38,0,2.11.73,2.11,2.11v.87c0,1.38-.73,2.11-2.11,2.11h-14.02v-1.6h13.87c.22,0,.36-.14.36-.36v-1.16c0-.22-.14-.36-.36-.36h-12.05c-1.38,0-2.11-.73-2.11-2.11v-.87Zm18.81,0c0-1.38.73-2.11,2.11-2.11h13.72v1.89h-13.51c-.22,0-.36.14-.36.36v4.14c0,.22.14.36.36.36h13.51v1.89h-13.65c-1.38,0-2.11-.73-2.11-2.11v-4.43h-.07Zm33.84-2.11v8.57h-1.96v-3.34h-11.62v3.34h-1.96v-8.57h1.96v3.34h11.62v-3.34h1.96Zm4.43,1.6v1.89h15.03v1.6h-15.03v1.89h15.03v1.6h-16.99v-8.57h16.99v1.6h-15.03Z" style="stroke-width:0px;"></path></g></g></g></svg> 