<?xml version="1.0" encoding="UTF-8"?> <svg preserveAspectRatio="xMidYMid meet" xmlns="http://www.w3.org/2000/svg" xmlns:xlink="http://www.w3.org/1999/xlink" viewbox="0 0 170 120" width="170" height="120"><defs><style>.cls-1,.cls-2{fill:none;}.cls-2{stroke:#b3b3b3;stroke-miterlimit:10;}.cls-3{clip-path:url(#clip-path);}.cls-4{clip-path:url(#clip-path-2);}.cls-5{fill-rule:evenodd;}</style><clipPath id="clip-path"><rect class="cls-1" x="37" y="49.71" width="96" height="20.57"></rect></clipPath><clipPath id="clip-path-2"><rect class="cls-1" x="37" y="49.71" width="96" height="20.57"></rect></clipPath></defs><title>Sec_M_Diageo-black</title><g id="M_Sec-partners_-_Infos" data-name="M_Sec-partners - Infos"><rect class="cls-2" x="-193.5" y="-100.22" width="375" height="539"></rect></g><g id="M_Sec-partners_-_Logos" data-name="M_Sec-partners - Logos"><g id="Diageo"><g class="cls-3"><g class="cls-4"><path class="cls-5" d="M97.05,54c-.81.81-1.62,1.41-2.42,2.12a7.24,7.24,0,0,0-6.77-3.23c-3.63.3-6.66,3.53-6.25,8.07.5,5.15,8.07,8.58,11.91,3.84a5.8,5.8,0,0,0,1-2.22c-1.62-.2-3.74,0-5.45-.1V59.35H98c.4,4.24-1.11,7.27-3.54,9a11.61,11.61,0,0,1-5.14,1.92,10.27,10.27,0,0,1-1.52-20.49c4.64-.4,7.17,1.82,9.29,4.24"></path><path class="cls-5" d="M121.67,49.86A10.27,10.27,0,0,1,133,60.66a10,10,0,0,1-7.07,9.08c-7.16,2.23-14.33-2.92-13.62-10.89a8.06,8.06,0,0,1,1.21-3.74,10.56,10.56,0,0,1,8.17-5.25m-6,10.8A6.64,6.64,0,0,0,119,66.11a7.07,7.07,0,0,0,10.8-6,6.93,6.93,0,0,0-8-7.17,7.12,7.12,0,0,0-6.15,7.77"></path><path class="cls-5" d="M70.51,50c2.82,6.67,5.65,13.33,8.47,19.89-1,.2-2.42,0-3.63.1-.61-1.62-1.31-3-1.92-4.65-2.12.91-5.75,1-7.67-.1a41.54,41.54,0,0,0-2,4.75H60.11c2.93-6.66,5.75-13.43,8.78-20ZM66.87,62.48a8.85,8.85,0,0,0,5.35.1,62.56,62.56,0,0,0-2.72-6.46c-.81,2.12-1.72,4.24-2.63,6.36"></path><path class="cls-5" d="M37.1,50.07c9.08-.91,15.74,1.91,15.74,9.78C52.84,68,46.08,70.65,37,70V50.27s0-.2.1-.2m3.33,3.43V66.82c2.93-.1,5-.2,6.86-1.62C50.73,62.38,50,55.92,46.18,54c-1.51-.71-3.23-.81-5.65-.81a.39.39,0,0,0-.1.31"></path><path class="cls-5" d="M55.47,50.07H58.8V69.85c-.91.2-2.22,0-3.33.1Z"></path><path class="cls-5" d="M111,50.07v3c-2.32.2-5,0-7.56.1v4.24c2.12.2,4.64,0,7,.1v3.13h-6.86c-.21,1.82,0,4.14-.1,6.16H111V70H100.18c-.1-6.46-.1-13.53,0-19.88Z"></path></g></g></g></g></svg> 