<?xml version="1.0" encoding="UTF-8"?> <svg preserveAspectRatio="xMidYMid meet" xmlns="http://www.w3.org/2000/svg" xmlns:xlink="http://www.w3.org/1999/xlink" id="M_Sec-partners_-_Logos" width="170" height="120" viewBox="0 0 170 120"><defs><clipPath id="clippath"><rect x="10.88" y="31.85" width="148.24" height="56.29" style="fill:none;"></rect></clipPath><clipPath id="clippath-2"><rect x="10.88" y="31.85" width="148.24" height="56.29" style="fill:none;"></rect></clipPath></defs><g id="E-novinfo"><g style="clip-path:url(#clippath);"><g style="clip-path:url(#clippath-2);"><path d="m38.45,61.12c.49.58.98,1.16,1.44,1.75.24-.03.48-.06.72-.1-.67-.6-1.38-1.16-2.1-1.69-.02.01-.04.03-.06.04" style="fill:#6fb74d;"></path><path d="m37.32,56.16c.81.29,1.62.58,2.42.9.19-.15.39-.29.58-.44-.99-.21-1.99-.35-2.99-.45" style="fill:#0082c9;"></path><path d="m46.71,59.72c-.49-.75-1.12-1.15-1.72-1.51-.67-.37-1.35-.65-2.04-.88-.26.28-.53.54-.8.8.74.37,1.45.77,2.07,1.25.47.35.9.77,1.07,1.15.15.39.09.48-.18.77-.3.27-.79.54-1.33.74-.54.2-1.12.36-1.71.49-.48.1-.96.18-1.45.25-.24.04-.48.07-.72.1-1.52.19-3.07.27-4.62.29-.22,0-.44,0-.66,0-1.7,0-3.41-.06-5.11-.19-.48-.03-.97-.07-1.45-.12-.34-.03-.68-.06-1.02-.1-1.64-.17-3.27-.4-4.88-.7-.87-.16-1.73-.34-2.58-.54-.42-.1-.83-.21-1.24-.32-.47-.13-.95-.27-1.41-.43-.3-.1-.6-.21-.9-.32-.56-.22-1.11-.46-1.6-.73-.49-.27-.96-.59-1.2-.88-.13-.15-.18-.26-.2-.32-.02-.06,0-.12.04-.25.13-.27.6-.62,1.09-.89.67-.38,1.45-.67,2.25-.92-.26-.32-.52-.65-.76-1-.09-.13-.18-.26-.27-.39-.67.14-1.35.34-2.04.62-.67.29-1.37.62-1.98,1.42-.13.23-.29.43-.36.72-.04.14-.07.28-.1.42-.02.14-.02.29-.01.44.04.59.28,1.08.54,1.45.53.75,1.15,1.19,1.75,1.61.47.31.95.57,1.44.8.14.07.29.14.43.2.38.18.77.34,1.16.49.89.34,1.78.63,2.68.89,1.68.47,3.38.82,5.09,1.09.49.08.99.15,1.48.21.42.05.85.11,1.27.15.13.01.26.02.39.04,1.94.19,3.9.28,5.85.26.57,0,1.13-.02,1.7-.04.69-.03,1.38-.08,2.07-.14.03,0,.05,0,.08,0,1.54-.14,3.08-.36,4.62-.74.36-.09.73-.19,1.09-.3.03,0,.06-.02.1-.03.66-.2,1.32-.44,1.97-.75.65-.32,1.32-.69,1.9-1.38.28-.35.54-.83.58-1.38.03-.54-.12-1.08-.38-1.43" style="fill:#0082c9;"></path><path d="m20.87,54.58c-.86,0-1.72.03-2.59.09.32.36.66.72,1,1.07.6-.12,1.22-.23,1.83-.33-.09-.28-.17-.56-.25-.84" style="fill:#0082c9;"></path><path d="m25.21,54.86c-.47-.06-.94-.11-1.4-.15.03.1.07.2.11.31.43-.05.86-.11,1.3-.16" style="fill:#0082c9;"></path><path d="m28.41,53.7c-1.84-1.39-3.8-2.62-5.91-3.63.1.48.21.95.33,1.43,1.88.62,3.73,1.41,5.58,2.2" style="fill:#6fb74d;"></path><path d="m35.27,63.16c.49-.29.97-.58,1.45-.89.58-.37,1.16-.76,1.72-1.16.02-.01.04-.03.06-.04,1.27-.89,2.49-1.85,3.64-2.95.27-.26.54-.53.8-.8.02-.02.05-.05.07-.07.47-.51.92-1.04,1.33-1.64.4-.6.79-1.26.95-2.15.07-.44.05-.99-.18-1.48-.24-.48-.65-.87-1.04-1.05-.8-.4-1.54-.44-2.25-.45-1.41.03-2.71.32-3.98.68-1.27.37-2.49.83-3.68,1.38,1.28-.24,2.56-.46,3.84-.6,1.27-.13,2.56-.23,3.74-.06.58.07,1.17.22,1.5.46.32.26.31.37.23.76-.13.38-.42.86-.78,1.3-.36.44-.79.87-1.24,1.28-.37.32-.75.64-1.13.94-.19.15-.38.3-.58.44-1.39,1.05-2.9,2.01-4.42,2.9-1.89,1.09-3.83,2.1-5.82,3.02,1.7.12,3.41.19,5.11.19.22,0,.44,0,.66,0" style="fill:#db4587;"></path><path d="m21.98,57.93c-.08.04-.16.07-.24.11.08.07.16.14.24.21.03-.02.06-.04.09-.07-.03-.08-.06-.17-.09-.26" style="fill:#db4587;"></path><path d="m23.98,65.24c-.83.29-1.66.57-2.5.82-1.2.36-2.41.65-3.6.84-.6.1-1.19.16-1.76.17-.55.01-1.12-.03-1.48-.16-.18-.06-.29-.13-.33-.18-.05-.04-.06-.1-.09-.24-.02-.3.21-.84.5-1.31.39-.67.92-1.31,1.49-1.92-.39-.15-.77-.31-1.16-.49-.14-.07-.29-.13-.43-.2-.51.46-1,.97-1.45,1.55-.43.58-.88,1.22-1.01,2.23,0,.27-.03.52.05.81.04.14.08.28.13.42.05.14.13.26.21.39.33.49.78.79,1.19.99.84.39,1.59.46,2.32.52.73.04,1.43,0,2.12-.06,1.38-.13,2.7-.41,4.01-.73,1.48-.38,2.93-.85,4.35-1.37-.37-.61-.73-1.23-1.08-1.85-.49-.06-.99-.13-1.48-.21" style="fill:#db4587;"></path><path d="m19.12,59.4c-.75.43-1.48.88-2.19,1.37.46.15.93.3,1.41.43.46-.41.94-.81,1.42-1.2-.21-.2-.42-.4-.63-.6" style="fill:#db4587;"></path><path d="m37.8,68.24c-.28-.86-.61-1.7-.97-2.52-.03,0-.05,0-.08,0,.14.75.27,1.49.38,2.24.22.09.45.19.67.28" style="fill:#f8aa00;"></path><path d="m37.36,73c-.07.58-.22,1.17-.46,1.5-.26.32-.37.31-.76.23-.38-.13-.86-.42-1.3-.78-.44-.36-.87-.79-1.28-1.24-1.48-1.67-2.77-3.59-3.95-5.56-.84-.48-1.67-.98-2.49-1.5-.13-.01-.26-.02-.39-.04-.42-.05-.85-.1-1.27-.15.35.62.71,1.24,1.08,1.85.14.23.28.45.42.68,1.44,2.23,3.01,4.41,5.02,6.29.51.47,1.04.92,1.64,1.33.6.4,1.26.79,2.15.95.44.07.99.06,1.48-.18.48-.24.87-.65,1.05-1.04.4-.8.44-1.54.45-2.25-.02-.76-.11-1.5-.25-2.21-.37-.09-.73-.18-1.09-.29.05.83.06,1.65-.05,2.42" style="fill:#f8aa00;"></path><path d="m19.98,50.68c.15.94.35,1.86.57,2.76.1.38.2.76.31,1.13.08.28.16.56.25.84.26.85.55,1.69.86,2.52.03.08.06.17.09.26.03.07.06.14.08.22,1.25,1.06,2.55,2.08,3.88,3.04.28.2.55.4.83.59-.36-.74-.71-1.48-1.04-2.23-.7-1.57-1.35-3.17-1.91-4.79-.04-.1-.07-.2-.11-.31-.23-.66-.44-1.32-.64-1.98-.12-.41-.24-.82-.34-1.24-.12-.48-.23-.95-.33-1.43-.06-.31-.12-.62-.17-.93-.1-.6-.16-1.19-.17-1.76-.01-.55.03-1.12.16-1.48.06-.18.14-.29.18-.33.04-.05.1-.06.24-.09.3-.02.84.21,1.31.5.99.58,1.92,1.46,2.8,2.35,1.78,1.8,3.35,3.87,4.91,5.96-1.02-2.41-2.28-4.71-3.84-6.87-.81-1.06-1.66-2.1-2.81-2.99-.58-.43-1.22-.88-2.23-1.01-.27,0-.52-.03-.81.05-.14.04-.28.08-.42.13-.14.05-.26.13-.39.21-.49.33-.79.78-.99,1.19-.39.84-.46,1.59-.52,2.32-.03.56-.02,1.11.02,1.65.01.16.02.32.04.48.04.42.09.83.16,1.24" style="fill:#f8aa00;"></path><path d="m42.61,67.11c.23.54.4,1.12.35,1.52-.07.41-.16.46-.54.57-.4.08-.96.07-1.52-.03-.57-.09-1.15-.25-1.72-.43-.46-.15-.92-.32-1.38-.51-.22-.09-.45-.18-.67-.28-1.41-.6-2.79-1.31-4.15-2.06-1.96.02-3.91-.08-5.85-.26.81.52,1.64,1.02,2.49,1.5.49.28.99.55,1.49.82,2.01,1.03,4.08,1.98,6.3,2.62.36.1.72.2,1.09.29.03,0,.06.02.1.02.67.15,1.36.28,2.08.33.72.05,1.49.06,2.34-.25.42-.16.88-.45,1.19-.9.29-.45.43-1,.39-1.43-.05-.9-.39-1.56-.74-2.17-.4-.65-.85-1.24-1.33-1.79-.36.11-.73.21-1.09.3.46.69.87,1.4,1.17,2.12" style="fill:#6fb74d;"></path><path d="m16.41,56.47c.6.74,1.23,1.43,1.87,2.11.27.28.55.56.84.83.21.2.42.4.63.6.78.72,1.58,1.41,2.4,2.07,1.61.3,3.24.52,4.88.7.34.04.68.06,1.02.1-.4-.27-.79-.54-1.19-.82-.28-.2-.56-.39-.83-.59-1.33-.97-2.63-1.98-3.88-3.04-.06-.05-.11-.1-.17-.15-.08-.07-.16-.14-.24-.21-.53-.46-1.04-.92-1.54-1.4-.31-.29-.61-.6-.91-.9-.35-.35-.68-.71-1-1.07-.21-.24-.42-.48-.62-.72-.38-.47-.73-.95-1.02-1.44-.29-.47-.53-.99-.6-1.36-.04-.19-.03-.32-.01-.38,0-.06.06-.1.16-.19.25-.17.83-.24,1.39-.23.77,0,1.59.14,2.41.33-.06-.41-.12-.82-.16-1.24-.02-.16-.03-.32-.04-.48-.66-.21-1.34-.38-2.07-.48-.72-.09-1.5-.15-2.43.24-.23.14-.47.23-.67.45-.1.1-.2.21-.3.32-.09.11-.16.25-.23.37-.26.53-.29,1.08-.26,1.53.08.92.4,1.61.71,2.27.26.5.54.97.84,1.41.09.13.18.26.27.39.24.34.5.67.76,1" style="fill:#6fb74d;"></path><path d="m66.88,63.86h-10.4c.31,2.51,2.13,4.16,4.62,4.16,1.57,0,2.95-.58,3.94-1.62l1.04,1.09c-1.21,1.33-3,2.1-5.13,2.1-3.75,0-6.34-2.64-6.34-6.43s2.61-6.41,6.31-6.43c4.11,0,6.14,2.83,5.95,7.13m-1.69-1.5c-.12-2.47-1.77-4.06-4.26-4.06s-4.18,1.6-4.45,4.06h8.7Z" style="fill:#7b868c;"></path><rect x="68.93" y="62.36" width="4.18" height="1.52" style="fill:#7b868c;"></rect><path d="m86.79,61.67v7.83h-1.89v-7.35c0-2.27-1.35-3.63-3.6-3.63-2.52.02-4.06,1.69-4.28,4.16v6.82h-1.89v-12.72h1.89v2.8c.9-1.93,2.61-2.85,4.93-2.88,3.05,0,4.84,1.86,4.84,4.96" style="fill:#7b868c;"></path><path d="m102.63,63.12c0,3.8-2.68,6.46-6.46,6.46s-6.46-2.66-6.46-6.46,2.66-6.41,6.46-6.41,6.46,2.64,6.46,6.41m-11.03.02c0,2.85,1.89,4.79,4.57,4.79s4.57-1.93,4.57-4.79-1.91-4.76-4.57-4.76-4.57,1.96-4.57,4.76" style="fill:#7b868c;"></path><polygon points="105.34 56.79 109.4 67.6 113.44 56.79 115.35 56.79 110.34 69.51 108.38 69.51 103.33 56.79 105.34 56.79" style="fill:#7b868c;"></polygon><path d="m119.72,53.14c0,.73-.53,1.28-1.23,1.28s-1.23-.56-1.23-1.28.53-1.28,1.23-1.28,1.23.53,1.23,1.28m-.29,16.37h-1.86v-12.72h1.86v12.72Z" style="fill:#7b868c;"></path><path d="m135.68,61.67v7.83h-1.89v-7.35c0-2.27-1.35-3.63-3.6-3.63-2.52.02-4.06,1.69-4.28,4.16v6.82h-1.89v-12.72h1.89v2.8c.89-1.93,2.61-2.85,4.93-2.88,3.05,0,4.84,1.86,4.84,4.96" style="fill:#7b868c;"></path><path d="m142.14,55.51v1.67h3.65v1.47h-3.65v10.86h-1.86v-10.86h-1.64v-1.47h1.64v-1.43c0-2.76,1.96-4.28,4.09-4.26.97,0,1.96.31,2.73.89l-.77,1.45c-.58-.41-1.28-.65-1.93-.65-1.23-.02-2.25.82-2.25,2.32" style="fill:#7b868c;"></path><path d="m159.11,63.12c0,3.8-2.68,6.46-6.46,6.46s-6.46-2.66-6.46-6.46,2.66-6.41,6.46-6.41,6.46,2.64,6.46,6.41m-11.03.02c0,2.85,1.89,4.79,4.57,4.79s4.57-1.93,4.57-4.79-1.91-4.76-4.57-4.76-4.57,1.96-4.57,4.76" style="fill:#7b868c;"></path></g></g></g></svg> 