<?xml version="1.0" encoding="UTF-8"?> <svg preserveAspectRatio="xMidYMid meet" xmlns="http://www.w3.org/2000/svg" xmlns:xlink="http://www.w3.org/1999/xlink"  width="170" height="120" viewBox="0 0 170 120"><defs><clipPath id="clippath"><rect x="10.71" y="18.74" width="148.85" height="90.32" style="fill: none; stroke-width: 0px;"></rect></clipPath><clipPath id="clippath-2"><rect x="10.71" y="18.74" width="148.85" height="90.32" style="fill: none; stroke-width: 0px;"></rect></clipPath></defs><g id="M_Sec-partners_-_Infos" data-name="M_Sec-partners - Infos"><rect x="-5.59" y="-100.22" width="375" height="539" style="fill: none; stroke: #b3b3b3; stroke-miterlimit: 10;"></rect></g><g id="M_Sec-partners_-_Logos" data-name="M_Sec-partners - Logos"><g id="B_O" data-name="B&amp;amp;O"><g style="clip-path: url(#clippath);"><g style="clip-path: url(#clippath-2);"><path d="M87.36,63.7c2.76,0,3.94-2.3,3.94-4.68s-1.3-4.7-3.94-4.68c-2.64-.02-3.94,2.25-3.94,4.68s1.18,4.68,3.94,4.68M87.36,52.82c3.63,0,5.76,2.64,5.76,6.19s-2.11,6.19-5.76,6.19-5.76-2.56-5.76-6.19,2.13-6.19,5.76-6.19M53.85,54.33c1.54,0,2.45.27,3.29.82l.14-1.73c-.99-.34-1.77-.6-3.51-.6-3.65,0-6.32,2.45-6.32,6.14s2.52,6.24,6.31,6.24c1.87,0,3-.31,3.65-.53v-6.23h-4.23v1.41h2.52v3.64c-.07.01-.13.03-.2.04-.35.08-.73.16-1.72.16-2.49,0-4.51-1.87-4.51-4.68s1.83-4.68,4.59-4.68M13.37,58.14h-.94v-3.71h1.8c.99,0,2.21.36,2.21,1.78,0,1.77-1.41,1.92-3.07,1.92M13.71,63.59h-1.29v-4.05h1.11c1.47,0,3.1.26,3.1,2.11,0,1.61-1.39,1.94-2.93,1.94M13.95,53.03h-3.24v11.97h3.19c2.43,0,4.56-.62,4.56-3.19,0-1.68-1.15-2.75-2.78-2.88v-.03c1.51-.38,2.47-1.2,2.47-2.85,0-2.21-1.71-3.02-4.2-3.02M23.82,60.58l2.38-5.94,2.38,5.94h-4.76ZM27.17,53.03h-1.8l-5.11,11.97h1.8l1.22-3.02h5.86l1.22,3.02h1.87l-5.06-11.97ZM34.84,53.03h2.33l5.28,9.64h.03v-9.64h1.71v11.97h-2.19l-5.42-9.85h-.03v9.85h-1.71v-11.97ZM98.25,53.03h-1.71v11.97h6.72v-1.51h-5v-10.46ZM114.8,60.04c0,3.36-1.7,5.16-4.65,5.16s-4.64-1.8-4.64-5.16v-7.02h1.71v6.79c0,2.3.72,3.88,2.93,3.88s2.93-1.58,2.93-3.88v-6.79h1.71v7.02ZM125.29,53.03h-6.36v11.97h1.71v-5.46h4.44v-1.51h-4.44v-3.5h4.64v-1.51ZM134.84,54.83c-.87-.34-1.35-.5-2.25-.5-.96,0-2.09.34-2.09,1.59,0,1,.96,1.46,2.06,1.99,1.43.69,3.09,1.49,3.09,3.73,0,2.56-1.97,3.57-4.37,3.57-.84,0-1.66-.24-2.45-.5l.17-1.6c.58.24,1.61.58,2.49.58.98,0,2.35-.55,2.35-1.96,0-1.23-1.08-1.74-2.25-2.29-1.38-.65-2.89-1.36-2.89-3.37,0-2.13,1.68-3.26,3.84-3.26.79,0,1.73.14,2.55.43l-.24,1.58ZM146.24,53.03h-6.7v11.97h6.7v-1.51h-4.99v-3.95h4.54v-1.51h-4.54v-3.5h4.99v-1.51ZM150.2,53.03h2.33l5.28,9.64h.03v-9.64h1.71v11.97h-2.19l-5.42-9.85h-.03v9.85h-1.71v-11.97ZM68.12,60.6l1.09-1.09,2.43,2.4s-.52.53-1.1,1.11c-.59.58-1.66.75-2.41,0-.75-.75-.58-1.83,0-2.41M72.83,63.13c.34.34,1.69,1.7,1.69,1.7l1.2-1.21-1.69-1.7,1.21-1.2-1.21-1.21-1.21,1.21s-3.4-3.42-3.97-3.99h0s-.39-.39-.39-.91c0-.83.72-1.28,1.28-1.28.48,0,.78.24.91.38l.14-.14c.31-.31,1-.99,1.07-1.07,0,0,0,0-.01-.01-.13-.14-.86-.87-2.1-.87-1.77,0-2.99,1.48-2.99,2.99,0,1.29.81,2.07,1.14,2.39.04.04.08.07.1.1-.11.11-.27.27-.44.44-.21.21-.44.44-.65.65-1,1-1.62,3.21,0,4.84,1.61,1.61,3.78,1.04,4.83,0l.04-.04c.5-.5.78-.78,1.05-1.05" style="fill: #1d1d1b; fill-rule: evenodd; stroke-width: 0px;"></path><polygon points="73.56 70.08 76.13 70.08 76.13 70.69 74.2 70.69 74.2 72.03 76.1 72.03 76.1 72.64 74.2 72.64 74.2 74.29 76.13 74.29 76.13 74.89 73.56 74.89 73.56 70.08" style="fill: #1d1d1b; stroke-width: 0px;"></polygon><path d="M78.16,72.59c-.05-.16-.18-.27-.35-.27-.18,0-.33.13-.33.31,0,.13.05.24.29.33l.46.19c.33.13.64.44.64.89,0,.53-.45.94-1.04.94-.54,0-.98-.33-1.07-.79l.56-.12c.06.21.26.36.5.36s.43-.16.43-.38c0-.16-.1-.29-.29-.36l-.47-.19c-.4-.16-.63-.46-.63-.85,0-.48.42-.87.94-.87.43,0,.78.26.9.63l-.55.2Z" style="fill: #1d1d1b; stroke-width: 0px;"></path><polygon points="79.81 74.89 79.81 72.39 79.25 72.39 79.25 71.84 79.81 71.84 79.81 70.68 80.42 70.68 80.42 71.84 81.06 71.84 81.06 72.39 80.42 72.39 80.42 74.89 79.81 74.89" style="fill: #1d1d1b; stroke-width: 0px;"></polygon><path d="M81.79,74.97c-.25,0-.45-.2-.45-.45s.2-.45.45-.45.45.2.45.45-.2.45-.45.45" style="fill: #1d1d1b; stroke-width: 0px;"></path><polygon points="84.82 70.87 84.31 70.87 84.31 70.27 85.44 70.27 85.44 74.89 84.82 74.89 84.82 70.87" style="fill: #1d1d1b; stroke-width: 0px;"></polygon><path d="M87.91,73.3c-.88,0-1.55-.69-1.55-1.55s.7-1.55,1.6-1.55,1.59.69,1.59,1.55c0,.63-.36,1.07-.87,1.77l-1,1.37h-.76l1.2-1.61c-.06.01-.13.02-.2.02M87.95,70.78c-.54,0-.96.42-.96.97s.41.97.96.97.96-.42.96-.97-.42-.97-.96-.97" style="fill: #1d1d1b; stroke-width: 0px;"></path><path d="M93.04,74.3v.59h-2.92l1.54-1.95c.43-.55.7-.84.7-1.37,0-.45-.34-.79-.78-.79s-.79.35-.79.82v.06h-.65v-.06c0-.78.62-1.41,1.44-1.41s1.44.62,1.44,1.38c0,.65-.34,1.03-.89,1.74l-.77.98h1.7Z" style="fill: #1d1d1b; stroke-width: 0px;"></path><path d="M95.18,71.79c.88,0,1.58.7,1.58,1.58s-.73,1.6-1.67,1.6c-.77,0-1.38-.52-1.54-1.22l.57-.14c.11.45.5.78.98.78.58,0,1.03-.44,1.03-1.01s-.46-1.01-1.07-1.01c-.39,0-.73.14-.99.38l.63-2.46h1.9v.59h-1.44l-.24.95c.09-.02.18-.03.27-.03" style="fill: #1d1d1b; stroke-width: 0px;"></path></g></g></g></g></svg> 