<?xml version="1.0" encoding="UTF-8"?> <svg preserveAspectRatio="xMidYMid meet" xmlns="http://www.w3.org/2000/svg" xmlns:xlink="http://www.w3.org/1999/xlink"  id="M_Sec-partners_-_Logos" data-name="M_Sec-partners - Logos" width="170" height="120" viewBox="0 0 170 120"><defs><clipPath id="clippath"><rect x="10.77" y="15.16" width="147.47" height="89.48" style="fill: none; stroke-width: 0px;"></rect></clipPath><clipPath id="clippath-2"><rect x="10.77" y="15.16" width="147.47" height="89.48" style="fill: none; stroke-width: 0px;"></rect></clipPath></defs><g id="Realstone"><g style="clip-path: url(#clippath);"><g style="clip-path: url(#clippath-2);"><path d="M39.53,57.16h0c0-1.32-.41-2.47-1.15-3.21-.91-.91-2.31-1.4-4.04-1.4h-6.35v13.85h3.05v-4.45h2.39l2.97,4.45h3.54l-3.38-4.95c1.73-.66,2.97-2.06,2.97-4.29M36.4,57.32c0,1.15-.82,1.98-2.31,1.98h-3.05v-3.96h3.05c1.48,0,2.39.66,2.39,1.98h-.08ZM46.29,60.78h6.51v-2.72h-6.51v-2.8h7.42v-2.72h-10.47v13.85h10.55v-2.72h-7.5v-2.89ZM62.29,52.46l-5.94,13.93h3.13l1.24-3.13h5.85l1.24,3.13h3.22l-5.94-13.93h-2.8ZM61.79,60.62l1.81-4.53,1.81,4.53h-3.71.08ZM76.71,52.54h-3.05v13.85h9.97v-2.8h-6.92v-11.13.08ZM92.54,58.15c-2.39-.58-2.97-.91-2.97-1.81,0-.74.58-1.24,1.81-1.24s2.39.49,3.63,1.4l1.57-2.31c-1.4-1.15-3.13-1.73-5.19-1.73s-4.86,1.65-4.86,4.2c0,2.8,1.81,3.54,4.62,4.29,2.31.58,2.8.99,2.8,1.73,0,.82-.74,1.32-1.98,1.32s-2.89-.66-4.12-1.65l-1.81,2.14c1.65,1.48,3.79,2.23,5.85,2.23,2.97,0,5.11-1.57,5.11-4.29,0-2.47-1.57-3.46-4.37-4.2l-.08-.08ZM99.3,55.34h4.2v11.05h3.05v-11.05h4.2v-2.8h-11.46v2.8ZM120.24,52.29c-4.29,0-7.42,3.21-7.42,7.17s3.05,7.17,7.34,7.17,7.42-3.21,7.42-7.17-3.05-7.17-7.34-7.17M124.36,59.55c0,2.39-1.73,4.29-4.12,4.29s-4.2-1.98-4.2-4.37,1.73-4.37,4.12-4.37,4.2,1.98,4.2,4.37v.08ZM140.35,61.11l-6.51-8.57h-2.8v13.85h3.05v-8.82l6.76,8.82h2.56v-13.85h-3.05v8.57ZM150.74,63.75v-2.89h6.51v-2.72h-6.51v-2.8h7.42v-2.72h-10.47v13.85h10.55v-2.72h-7.5ZM10.85,63.5c0,1.24,1.57,1.9,3.13,2.56.99.41,1.98.82,2.8,1.4h.08c0,.08.08,0,.08,0,.82-.58,1.81-.99,2.8-1.4,1.65-.66,3.13-1.32,3.13-2.56v-10.96h-12.12v10.96h.08ZM11.26,52.95h11.29v10.55c0,.99-1.32,1.57-2.89,2.23-.99.41-1.9.82-2.72,1.4-.82-.58-1.81-.99-2.72-1.4-1.57-.66-2.89-1.24-2.89-2.23v-10.55h-.08ZM12.58,57.49l.82-.58.82.58-.33-.99.82-.58h-.99l-.33-.99-.33.99h-.99l.82.58-.33.99ZM20.66,62.85l-.33-.99-.33.99h-.99l.82.58-.33.99.82-.58.82.58-.33-.99.82-.58h-.99ZM16.04,55.76l.82-.58.82.58-.33-.99.82-.58h-.99l-.33-.99-.33.99h-.99l.82.58-.33.99ZM19.5,57.49l.82-.58.82.58-.33-.99.82-.58h-.99l-.33-.99-.33.99h-.99l.82.58-.33.99M12.58,64.49l.82-.58.82.58-.33-.99.82-.58h-.99l-.33-.99-.33.99h-.99l.82.58-.33.99ZM17.11,62.85l3.3-2.31.33.25.66-.66-.41-.41c0,1.32-2.39-1.65-3.96-1.73v-.74l.74.41-.99-1.73-.99,1.73.74-.41v.74c-1.57.08-3.96,3.05-3.96,1.73l-.41.41.66.66.33-.25,3.3,2.23v.58l-.49.49v1.32l.74-.74.74.74v-1.32l-.49-.49v-.58l.16.08ZM17.11,58.72c1.07,0,2.14,1.07,2.97,1.65l-2.97,2.06v-3.71ZM16.62,62.35l-2.97-2.06c.82-.58,1.9-1.57,2.97-1.65v3.71Z" style="fill: #005190; stroke-width: 0px;"></path></g></g></g></svg> 