<?xml version="1.0" encoding="UTF-8"?> <svg preserveAspectRatio="xMidYMid meet" xmlns="http://www.w3.org/2000/svg" xmlns:xlink="http://www.w3.org/1999/xlink" id="M_Sec-partners_-_Logos" width="170" height="120" viewBox="0 0 170 120"><defs><clipPath id="clippath"><rect x="14.43" y="30.05" width="141.13" height="56.22" style="fill:none;"></rect></clipPath><clipPath id="clippath-2"><rect x="14.43" y="30.05" width="141.13" height="56.22" style="fill:none;"></rect></clipPath></defs><g id="Bonne_Maman"><g style="clip-path:url(#clippath);"><g style="clip-path:url(#clippath-2);"><path d="m37.95,46.14c-8.75-5.71-24.72,4.94-21.15,12.33,2.19,4.52,11.65-3.46,9.83-4.44-2.23-1.21-5.72,7.43-7.44,2.52-2.1-6,12.32-14.55,16.62-9.79,0,0-5.6,4.83-8.39,11.05-2.13,4.75-3.92,11.31-7.31,12.29-5.95,1.73-2.33-3.85-2.36-4.12-.08-.61-3.09-.68-3.25,1.85-.07,1.16-.07,3.96,4.14,3.72,7.41-.42,11.47-13.39,11.95-13.39,6.5,0,.29,11.34-1.98,11.15,0,0-2.82-1.36-4.04-.4-1.95,1.53.35,2.94,2.12,2.43,5.64-1.63,8.33-5.97,9.3-9.73.75-2.91-1.43-5.09-1.98-4.8,6.31-3.27,6.32-9.12,3.94-10.68m-6.79,10.17c.78-2.76,4.83-8.1,5.55-8.82,2.82,3.12-1.71,9-5.55,8.82" style="fill:#1d1d1b;"></path><path d="m36.53,46.37c.36-.54,2.64-1.68,2.64-1.68-1.16,1.39-1.48,1.54-1.96,2.26l-.68-.58Z" style="fill:#1d1d1b;"></path><path d="m153.22,61.49h-.36v-2.2h.91c.41,0,.77.12.77.64,0,.35-.18.55-.5.6l.53.96h-.43l-.48-.9h-.43v.9Zm0-1.22h.47c.26,0,.48-.08.48-.33,0-.26-.21-.34-.45-.34h-.5v.67Zm.4,2.06c-1.04,0-1.89-.86-1.89-1.89s.86-1.89,1.89-1.89,1.89.85,1.89,1.89-.85,1.89-1.89,1.89m0-.27c.87,0,1.62-.74,1.62-1.62s-.74-1.62-1.62-1.62-1.62.75-1.62,1.62.75,1.62,1.62,1.62" style="fill:#1d1d1b;"></path><path d="m95.07,71.26c1.63-.09,3.33-1.96,3.81-2.56,0,0-.24,1.18.35,1.73,1.98,1.85,4.79-.76,5.94-1.62.25-.19,0,2.76,1.93,2.38,1.08-.05,2.32-1.25,2.16-1.12l3.97-3.75s-1.53,4.24-1.24,4.71c.19.31,1.31.55,1.92-.19,1.33-1.61,4.26-3.89,4.26-3.89,0,0-1.01,2.92-.65,4,0,.36.63.3.99.3.71-.35,1.44-1.42,3.5-3.28.38-.34.48-.3.48.06,0,.45-.53,2.73-.02,2.82,1.49.27,4.23-1.48,4.71-2.08,0,0-.24,1.18.35,1.73,1.98,1.85,4.79-.76,5.94-1.62.27-.2.06,2.82,1.86,2.1,1.44-.72,4.54-3.18,4.54-3.18,0,0-1.49,3.28-.72,3.39.7.1.78.13,1.08,0,1.02-.47,3.18-3.26,3.18-3.26l.66-.48s-.26,3.96.66,3.96c.46,0,1.81-.37,2.23-.56,1.04-.47.96-.39,1.88-.61,1.82-.43.81,1.53,2.55.93-.14.05.94-1.23.78-2.12-.09-.5-.09-.97-.72-.88-.25.04-.71.04-1.08.13-1.4.32-3.6,1.13-3.6,1.13,0,0,.22-3.23.66-5.01.02-.1-1.67-.31-2.09.12-.77.8-1.87,1.74-2.78,2.28-.62.37.56-2.35.16-2.95-.23-.35-1.37-.03-1.79.27-1.29.93-2.94,4.17-4.36,4.45-1.08,0,1.19-3.39.17-3.8-.53-.21-1.34.05-1.76.44-.54.5-.84,1.27-1.36,1.95-1.06,1.39-2.21,2.36-3.05,1.79-1.64-1.1,1.25-5.68,3.78-5.88.36-.03,1.02.77,1.8.56.8-.21,1.56-1.2.9-1.98-.52-.61-2.53-.13-2.67-.08-3.69,1.35-5.27,2.57-6.93,5.67-.04.07-2.3,1.43-2.52,1.22-.23-.21.95-4.34.72-4.97-.27-.3-.88-.16-1.46.24-1.58,1.09-3.61,3.45-3.61,3.45,0,0,1.2-3.42.78-4.17-.13-.23-1.49.2-1.98.41-1.28.56-2.54,2.43-3.6,3.49-.18-.99,1.26-4.35.54-4.71-.49-.12-.74.1-1.15.26-2.24.88-4.25,5.01-6.73,6.32-1.17.27,1.03-3.69,0-4.1-.53-.21-1.34.05-1.76.44-.54.5-.84,1.27-1.36,1.95-1.06,1.39-2.21,2.36-3.05,1.79-1.64-1.1,1.25-5.68,3.78-5.88.36-.03,1.02.77,1.8.56.8-.21,1.56-1.2.9-1.98-.52-.61-2.53-.13-2.67-.08-3.69,1.35-5.27,2.57-6.93,5.67-.04.07-.48.53-.87.83-.14.33-1.95.96-1.62,0,2.74-7.97,13.54-23.26,12.64-22.89-9.13,3.78-13.33,13.85-18.01,20.34,2.34-6.75,7.53-14.11,10.42-20.23-9.36,2.88-12.61,13.42-17.65,21.34-.72,1.08-1.45,2.06-2.52,2.52-2.04.87-2.95-1.08-2.16-2.34.3-.48-2.13-.3-2.59.96-.38,1.05-.36,2.62.82,3.15,3.24,1.44,6.11-1.57,8.05-3.93,2.91-3.54,2.98-5.82,7.26-12.82.94-1.54,2.94-3.75,4.38-4.83-3.06,6.21-9.26,14.1-9.78,21.41-.05.63,1.27-.02,1.6-.18,4.08-1.98,8.68-15.64,15.13-21.01-1.53,2.7-9.11,14.52-9.75,17.07-.27,1.08-1.41,4.76.57,4.67" style="fill:#1d1d1b;"></path><path d="m73.97,68.52c-1.44-1.08-3.54.65-5.29,1.08-2.21.54-2.82-1.15-2.58-1.27,2.83-1.41,7.24-4.09,5.26-5.9-1.05-.96-3.73.08-5.41,1.33-2.52,1.89-2.79,4.29-2.85,4.68-4.62,2.64-.69-3.31-1.77-4.03-.86-.86-4.74,3-4.74,3,0,0,1.16-3.39,1.56-4.83.14-.49-2,.35-2.13.63-.91,2.05-4.91,6.5-5.19,5.7-.38-1.06,1.08-3.54.48-4.8-.33-.21-.75-.78-1.11-.42-1.32.66-3.9,3.87-3.9,3.87,0,0,.93-4.81.54-4.84-1.37-.11-1.69.7-2.14,1.14-.33.33-.74.61-1.49.97.03-1.17-.25-1.63-.7-1.9-.39-.23-1.23-.04-1.42.03-1.44,1.08-1.01,3.03-.23,3.81.12.12-2.55,3.32-3.96,2.25-.69-.53-.32-2.79,1.25-4.44.75-.79,1.43-1.54,2.17-2.09.91-.67,1.85-1.13,2.42-2.13-3.77-.18-10.61,7.88-8,10.76,2.07,2.28,6.57-2.71,7.31-4.14-.04.07,1.93-.82,1.97-1.26-.12,1.5-.93,5.13-.63,5.22.78.23,1.17.26,1.62-.03,1.17-.77,3.18-3.39,3.18-3.39,0,0-.39,3.58,1.05,3.94,1.62.24,4.83-3.4,4.83-3.4,0,0-.78,2.35-.61,2.99.06.21,1.08-.13,1.27-.28,1.65-1.37,3.84-2.94,3.84-2.94,0,0-.04,2.76.12,3.25.42,1.29,3.8-1.11,4.5-1.34-.06.69.48,1.58,1.83,1.94,2.46.66,4.44-1.44,6.6-1.44.72,0,1.08,1.44,1.8.36.36-.72.66-1.56.54-2.07m-5.08-4.82c1.69.72-2.91,3.44-2.91,3.44-.38-.87,1.4-4.08,2.91-3.44" style="fill:#1d1d1b;"></path><path d="m37.95,46.14c-8.75-5.71-24.72,4.94-21.15,12.33,2.19,4.52,11.65-3.46,9.83-4.44-2.23-1.21-5.72,7.43-7.44,2.52-2.1-6,12.32-14.55,16.62-9.79,0,0-5.6,4.83-8.39,11.05-2.13,4.75-3.92,11.31-7.31,12.29-5.95,1.73-2.33-3.85-2.36-4.12-.08-.61-3.09-.68-3.25,1.85-.07,1.16-.07,3.96,4.14,3.72,7.41-.42,11.47-13.39,11.95-13.39,6.5,0,.29,11.34-1.98,11.15,0,0-2.82-1.36-4.04-.4-1.95,1.53.35,2.94,2.12,2.43,5.64-1.63,8.33-5.97,9.3-9.73.75-2.91-1.43-5.09-1.98-4.8,6.31-3.27,6.32-9.12,3.94-10.68m-6.79,10.17c.78-2.76,4.83-8.1,5.55-8.82,2.82,3.12-1.71,9-5.55,8.82" style="fill:#1d1d1b;"></path><path d="m36.53,46.37c.36-.54,2.64-1.68,2.64-1.68-1.16,1.39-1.48,1.54-1.96,2.26l-.68-.58Z" style="fill:#1d1d1b;"></path><path d="m153.22,61.49h-.36v-2.2h.91c.41,0,.77.12.77.64,0,.35-.18.55-.5.6l.53.96h-.43l-.48-.9h-.43v.9Zm0-1.22h.47c.26,0,.48-.08.48-.33,0-.26-.21-.34-.45-.34h-.5v.67Zm.4,2.06c-1.04,0-1.89-.86-1.89-1.89s.86-1.89,1.89-1.89,1.89.85,1.89,1.89-.85,1.89-1.89,1.89m0-.27c.87,0,1.62-.74,1.62-1.62s-.74-1.62-1.62-1.62-1.62.75-1.62,1.62.75,1.62,1.62,1.62" style="fill:#1d1d1b;"></path><path d="m95.07,71.26c1.63-.09,3.33-1.96,3.81-2.56,0,0-.24,1.18.35,1.73,1.98,1.85,4.79-.76,5.94-1.62.25-.19,0,2.76,1.93,2.38,1.08-.05,2.32-1.25,2.16-1.12l3.97-3.75s-1.53,4.24-1.24,4.71c.19.31,1.31.55,1.92-.19,1.33-1.61,4.26-3.89,4.26-3.89,0,0-1.01,2.92-.65,4,0,.36.63.3.99.3.71-.35,1.44-1.42,3.5-3.28.38-.34.48-.3.48.06,0,.45-.53,2.73-.02,2.82,1.49.27,4.23-1.48,4.71-2.08,0,0-.24,1.18.35,1.73,1.98,1.85,4.79-.76,5.94-1.62.27-.2.06,2.82,1.86,2.1,1.44-.72,4.54-3.18,4.54-3.18,0,0-1.49,3.28-.72,3.39.7.1.78.13,1.08,0,1.02-.47,3.18-3.26,3.18-3.26l.66-.48s-.26,3.96.66,3.96c.46,0,1.81-.37,2.23-.56,1.04-.47.96-.39,1.88-.61,1.82-.43.81,1.53,2.55.93-.14.05.94-1.23.78-2.12-.09-.5-.09-.97-.72-.88-.25.04-.71.04-1.08.13-1.4.32-3.6,1.13-3.6,1.13,0,0,.22-3.23.66-5.01.02-.1-1.67-.31-2.09.12-.77.8-1.87,1.74-2.78,2.28-.62.37.56-2.35.16-2.95-.23-.35-1.37-.03-1.79.27-1.29.93-2.94,4.17-4.36,4.45-1.08,0,1.19-3.39.17-3.8-.53-.21-1.34.05-1.76.44-.54.5-.84,1.27-1.36,1.95-1.06,1.39-2.21,2.36-3.05,1.79-1.64-1.1,1.25-5.68,3.78-5.88.36-.03,1.02.77,1.8.56.8-.21,1.56-1.2.9-1.98-.52-.61-2.53-.13-2.67-.08-3.69,1.35-5.27,2.57-6.93,5.67-.04.07-2.3,1.43-2.52,1.22-.23-.21.95-4.34.72-4.97-.27-.3-.88-.16-1.46.24-1.58,1.09-3.61,3.45-3.61,3.45,0,0,1.2-3.42.78-4.17-.13-.23-1.49.2-1.98.41-1.28.56-2.54,2.43-3.6,3.49-.18-.99,1.26-4.35.54-4.71-.49-.12-.74.1-1.15.26-2.24.88-4.25,5.01-6.73,6.32-1.17.27,1.03-3.69,0-4.1-.53-.21-1.34.05-1.76.44-.54.5-.84,1.27-1.36,1.95-1.06,1.39-2.21,2.36-3.05,1.79-1.64-1.1,1.25-5.68,3.78-5.88.36-.03,1.02.77,1.8.56.8-.21,1.56-1.2.9-1.98-.52-.61-2.53-.13-2.67-.08-3.69,1.35-5.27,2.57-6.93,5.67-.04.07-.48.53-.87.83-.14.33-1.95.96-1.62,0,2.74-7.97,13.54-23.26,12.64-22.89-9.13,3.78-13.33,13.85-18.01,20.34,2.34-6.75,7.53-14.11,10.42-20.23-9.36,2.88-12.61,13.42-17.65,21.34-.72,1.08-1.45,2.06-2.52,2.52-2.04.87-2.95-1.08-2.16-2.34.3-.48-2.13-.3-2.59.96-.38,1.05-.36,2.62.82,3.15,3.24,1.44,6.11-1.57,8.05-3.93,2.91-3.54,2.98-5.82,7.26-12.82.94-1.54,2.94-3.75,4.38-4.83-3.06,6.21-9.26,14.1-9.78,21.41-.05.63,1.27-.02,1.6-.18,4.08-1.98,8.68-15.64,15.13-21.01-1.53,2.7-9.11,14.52-9.75,17.07-.27,1.08-1.41,4.76.57,4.67" style="fill:#1d1d1b;"></path><path d="m73.97,68.52c-1.44-1.08-3.54.65-5.29,1.08-2.21.54-2.82-1.15-2.58-1.27,2.83-1.41,7.24-4.09,5.26-5.9-1.05-.96-3.73.08-5.41,1.33-2.52,1.89-2.79,4.29-2.85,4.68-4.62,2.64-.69-3.31-1.77-4.03-.86-.86-4.74,3-4.74,3,0,0,1.16-3.39,1.56-4.83.14-.49-2,.35-2.13.63-.91,2.05-4.91,6.5-5.19,5.7-.38-1.06,1.08-3.54.48-4.8-.33-.21-.75-.78-1.11-.42-1.32.66-3.9,3.87-3.9,3.87,0,0,.93-4.81.54-4.84-1.37-.11-1.69.7-2.14,1.14-.33.33-.74.61-1.49.97.03-1.17-.25-1.63-.7-1.9-.39-.23-1.23-.04-1.42.03-1.44,1.08-1.01,3.03-.23,3.81.12.12-2.55,3.32-3.96,2.25-.69-.53-.32-2.79,1.25-4.44.75-.79,1.43-1.54,2.17-2.09.91-.67,1.85-1.13,2.42-2.13-3.77-.18-10.61,7.88-8,10.76,2.07,2.28,6.57-2.71,7.31-4.14-.04.07,1.93-.82,1.97-1.26-.12,1.5-.93,5.13-.63,5.22.78.23,1.17.26,1.62-.03,1.17-.77,3.18-3.39,3.18-3.39,0,0-.39,3.58,1.05,3.94,1.62.24,4.83-3.4,4.83-3.4,0,0-.78,2.35-.61,2.99.06.21,1.08-.13,1.27-.28,1.65-1.37,3.84-2.94,3.84-2.94,0,0-.04,2.76.12,3.25.42,1.29,3.8-1.11,4.5-1.34-.06.69.48,1.58,1.83,1.94,2.46.66,4.44-1.44,6.6-1.44.72,0,1.08,1.44,1.8.36.36-.72.66-1.56.54-2.07m-5.08-4.82c1.69.72-2.91,3.44-2.91,3.44-.38-.87,1.4-4.08,2.91-3.44" style="fill:#1d1d1b;"></path></g></g></g></svg> 